<svg xmlns="http://www.w3.org/2000/svg" xmlns:xlink="http://www.w3.org/1999/xlink" width="277" height="173" viewBox="0 0 277 173">
    <defs>
        <path id="a" d="M0 173V.059h265.458v172.94z"/>
    </defs>
    <g fill="none" fill-rule="evenodd">
        <path fill="#DAE9F7" d="M75.015 34.654h11.547a5.768 5.768 0 0 0 5.771-5.765 5.767 5.767 0 0 0-5.77-5.763H75.014a5.767 5.767 0 0 0-5.77 5.763 5.769 5.769 0 0 0 5.77 5.765M190.437 11.596c.286 0 .564-.027.838-.067h9.835c.275.04.553.067.838.067 3.188 0 5.771-2.58 5.771-5.764a5.768 5.768 0 0 0-5.753-5.764V0h-11.529v.067a5.768 5.768 0 0 0-5.77 5.765 5.768 5.768 0 0 0 5.77 5.764M271.229 103.827a5.769 5.769 0 0 0-5.77 5.765 5.767 5.767 0 0 0 5.77 5.764c3.187 0 5.77-2.58 5.77-5.764a5.768 5.768 0 0 0-5.77-5.765M46.166 144.178c0-3.035-2.35-5.516-5.33-5.743v-.021H28.854a5.767 5.767 0 0 0-5.77 5.764 5.768 5.768 0 0 0 5.77 5.764h11.982v-.022c2.98-.226 5.33-2.707 5.33-5.742"/>
        <g>
            <mask id="b" fill="#fff">
                <use xlink:href="#a"/>
            </mask>
            <path fill="#F4F6FF" d="M259.687 80.77H201.98a5.768 5.768 0 0 0-5.77 5.764 5.768 5.768 0 0 0 5.77 5.764h46.167c3.187 0 5.77 2.58 5.77 5.764a5.767 5.767 0 0 1-5.77 5.765h-46.167a5.769 5.769 0 0 0-5.77 5.765 5.767 5.767 0 0 0 5.77 5.763 5.768 5.768 0 0 1 5.77 5.765 5.767 5.767 0 0 1-5.77 5.764h-11.542a5.769 5.769 0 0 0-5.77 5.766 5.769 5.769 0 0 0 5.77 5.764H236.604c3.187 0 5.77 2.58 5.77 5.764a5.768 5.768 0 0 1-5.77 5.765h-57.708a5.768 5.768 0 0 0-5.771 5.764 5.768 5.768 0 0 0 5.77 5.764h11.542c3.188 0 5.771 2.581 5.771 5.765a5.767 5.767 0 0 1-5.77 5.764h-80.792a5.768 5.768 0 0 1-5.771-5.764 5.768 5.768 0 0 1 5.77-5.765h11.542c3.188 0 5.771-2.58 5.771-5.764a5.767 5.767 0 0 0-5.77-5.764H75.032a5.769 5.769 0 0 1-5.77-5.765 5.767 5.767 0 0 1 5.77-5.764h23.071a5.768 5.768 0 0 0 5.77-5.764 5.768 5.768 0 0 0-5.77-5.766H86.562a5.767 5.767 0 0 1-5.77-5.764 5.769 5.769 0 0 1 5.77-5.765c3.188 0 5.771-2.58 5.771-5.763a5.768 5.768 0 0 0-5.77-5.765H39.995a5.767 5.767 0 0 1-5.771-5.765 5.767 5.767 0 0 1 5.77-5.764H63.48c3.187 0 5.77-2.58 5.77-5.764a5.767 5.767 0 0 0-5.77-5.764H5.771A5.769 5.769 0 0 1 0 75.005a5.768 5.768 0 0 1 5.77-5.765h69.263c3.188 0 5.771-2.58 5.771-5.764a5.767 5.767 0 0 0-5.77-5.764H51.936a5.768 5.768 0 0 1-5.77-5.764 5.768 5.768 0 0 1 5.77-5.765h69.25a5.768 5.768 0 0 0 5.771-5.765 5.767 5.767 0 0 0-5.77-5.763h-11.542a5.769 5.769 0 0 1-5.771-5.765 5.768 5.768 0 0 1 5.77-5.765h23.086a5.77 5.77 0 0 0 5.769-5.766 5.769 5.769 0 0 0-5.77-5.767h-11.48a5.768 5.768 0 0 1-5.771-5.767 5.768 5.768 0 0 1 5.77-5.766h46.167a5.769 5.769 0 0 1 5.771 5.766 5.769 5.769 0 0 1-5.77 5.767h-11.605a5.769 5.769 0 0 0-5.77 5.767 5.77 5.77 0 0 0 5.768 5.766h92.336c3.187 0 5.77 2.58 5.77 5.765a5.768 5.768 0 0 1-5.77 5.765h-46.182a5.767 5.767 0 0 0-5.771 5.763 5.768 5.768 0 0 0 5.77 5.765h23.1c3.187 0 5.77 2.58 5.77 5.765a5.767 5.767 0 0 1-5.77 5.764H213.52a5.768 5.768 0 0 0-5.771 5.764 5.768 5.768 0 0 0 5.77 5.764h46.167c3.188 0 5.771 2.58 5.771 5.765a5.768 5.768 0 0 1-5.77 5.765" mask="url(#b)"/>
        </g>
        <path fill="#FFF" d="M197.878 29.51l-.073 96.471a1.929 1.929 0 0 1-1.926 1.92l-129.907-.097a1.928 1.928 0 0 1-1.922-1.924l.073-96.47a1.93 1.93 0 0 1 1.925-1.921l129.907.099a1.928 1.928 0 0 1 1.923 1.923"/>
        <path fill="#FFF" d="M69.036 112.276l.06-79.16 121.879.09-.06 79.162z"/>
        <path stroke="#484964" stroke-dasharray="105.6,0,342.7199951171875,4.800000000000001,0,4.800000000000001" stroke-linecap="round" stroke-linejoin="round" stroke-width="1.92" d="M197.878 29.51l-.073 96.471a1.929 1.929 0 0 1-1.926 1.92l-129.907-.097a1.928 1.928 0 0 1-1.922-1.924l.073-96.47a1.93 1.93 0 0 1 1.925-1.921l129.907.099a1.928 1.928 0 0 1 1.923 1.923z"/>
        <path fill="#FFF" d="M139.83 127.86l-16.698-.013c-.004 4.447-1.115 16.168-1.115 16.168l18.565.024s-.754-11.731-.751-16.18"/>
        <path stroke="#484964" stroke-dasharray="105.6,0,342.7199951171875,3.840000152587891,0,4.800000000000001" stroke-linecap="round" stroke-linejoin="round" stroke-width="1.92" d="M139.83 127.86l-16.698-.013c-.004 4.447-1.115 16.168-1.115 16.168l18.565.024s-.754-11.731-.751-16.18z"/>
        <path fill="#4A48BC" d="M69.998 113.237l.06-79.16 121.879.09-.061 79.163z"/>
        <path stroke="#2E2682" stroke-dasharray="28.8,0,298.560009765625,4.800000000000001,0,4.800000000000001" stroke-linecap="round" stroke-linejoin="round" stroke-width="1.92" d="M69.998 113.237l.06-79.16 121.879.09-.061 79.163z"/>
        <path fill="#FFF" d="M232.181 145.016l-66.031-.05a1.929 1.929 0 0 1-1.922-1.924l.065-87.357a1.929 1.929 0 0 1 1.926-1.92l66.032.05a1.929 1.929 0 0 1 1.921 1.923l-.065 87.357a1.929 1.929 0 0 1-1.926 1.92"/>
        <path stroke="#484964" stroke-dasharray="109.4400024414062,0,45.12000122070313,4.800000000000001,0,4.800000000000001" stroke-linecap="round" stroke-linejoin="round" stroke-width="1.92" d="M232.181 145.016l-66.031-.05a1.929 1.929 0 0 1-1.922-1.924l.065-87.357a1.929 1.929 0 0 1 1.926-1.92l66.032.05a1.929 1.929 0 0 1 1.921 1.923l-.065 87.357a1.929 1.929 0 0 1-1.926 1.92z"/>
        <path fill="#00A0E3" d="M228.591 132.626l-58.832-.045.054-71.605 58.832.045z"/>
        <path stroke="#047DD9" stroke-dasharray="102.7199951171875,0,146.8800048828125,5.75999984741211,0" stroke-linecap="round" stroke-linejoin="round" stroke-width="1.92" d="M228.591 132.626l-58.832-.045.054-71.605 58.832.045-.02 25.884z"/>
        <path fill="#FCFCFC" d="M73.603 145.27l-28.854-.02a1.93 1.93 0 0 1-1.922-1.924l.042-54.783c0-1.059.866-1.923 1.924-1.922l28.855.021a1.93 1.93 0 0 1 1.922 1.925l-.042 54.783a1.927 1.927 0 0 1-1.925 1.92"/>
        <path stroke="#484964" stroke-dasharray="105.6,0,61.44000244140625,4.800000000000001,0,4.800000000000001" stroke-linecap="round" stroke-linejoin="round" stroke-width="1.92" d="M73.603 145.27l-28.854-.02a1.93 1.93 0 0 1-1.922-1.924l.042-54.783c0-1.059.866-1.923 1.924-1.922l28.855.021a1.93 1.93 0 0 1 1.922 1.925l-.042 54.783a1.927 1.927 0 0 1-1.925 1.92z"/>
        <path fill="#047DD9" d="M57.737 140.894a1.442 1.442 0 1 1 2.884.004 1.442 1.442 0 0 1-2.884-.004"/>
        <path fill="#00A0E3" d="M70.358 137.134l-22.351-.018.033-44.734 22.352.018z"/>
        <path stroke="#047DD9" stroke-dasharray="63.35999755859375,0,0,3.840000152587891,0,4.800000000000001" stroke-linecap="round" stroke-linejoin="round" stroke-width="1.92" d="M70.358 137.134l-22.351-.018.033-44.734 22.352.018z"/>
        <path fill="#047DD9" d="M202.087 138.34a2.885 2.885 0 1 1-5.77-.004 2.885 2.885 0 0 1 5.77.004"/>
        <path stroke="#484964" stroke-dasharray="105.6,0,342.7199951171875,3.840000152587891,0,4.800000000000001" stroke-linecap="round" stroke-linejoin="round" stroke-width="1.92" d="M112.063 144.039h38.473"/>
    </g>
</svg>
