<svg xmlns="http://www.w3.org/2000/svg" xmlns:xlink="http://www.w3.org/1999/xlink" width="278" height="173" viewBox="0 0 278 173">
    <defs>
        <path id="a" d="M265.649.059v172.94H0V.06z"/>
        <path id="c" d="M18.522.828C7.582 6.858.172 18.49.172 31.852c0 19.56 15.879 35.415 35.466 35.415 19.588 0 35.466-15.855 35.466-35.415 0-13.361-7.409-24.994-18.349-31.024H18.522z"/>
        <path id="e" d="M61.04.41c6.228 6.38 10.064 15.1 10.064 24.714 0 19.56-15.878 35.415-35.466 35.415C16.051 60.54.172 44.684.172 25.124.172 15.51 4.01 6.791 10.236.41H61.04z"/>
        <path id="g" d="M52.755.828c10.94 6.03 18.35 17.663 18.35 31.024 0 19.56-15.879 35.415-35.467 35.415C16.051 67.267.172 51.412.172 31.852c0-13.361 7.41-24.994 18.35-31.024h34.233z"/>
        <path id="i" d="M62.05.527c5.63 6.269 9.054 14.553 9.054 23.636 0 19.56-15.878 35.415-35.466 35.415C16.051 59.578.172 43.723.172 24.163.172 15.08 3.597 6.796 9.227.527H62.05z"/>
        <path id="k" d="M62.05.527c5.63 6.269 9.054 14.553 9.054 23.636 0 19.56-15.878 35.415-35.466 35.415C16.051 59.578.172 43.723.172 24.163.172 15.08 3.597 6.796 9.227.527H62.05z"/>
    </defs>
    <g fill="none" fill-rule="evenodd">
        <path fill="#DAE9F7" d="M202.13 34.654H190.573a5.77 5.77 0 0 1-5.775-5.765 5.77 5.77 0 0 1 5.775-5.763H202.129c3.19 0 5.775 2.58 5.775 5.763a5.77 5.77 0 0 1-5.775 5.765M86.624 11.596c-.285 0-.564-.027-.838-.067h-9.842c-.275.04-.553.067-.839.067a5.77 5.77 0 0 1-5.775-5.764c0-3.177 2.576-5.753 5.758-5.764V0h11.536v.067A5.77 5.77 0 0 1 92.4 5.832a5.77 5.77 0 0 1-5.775 5.764M5.775 103.827a5.77 5.77 0 0 1 5.775 5.765 5.77 5.77 0 0 1-5.775 5.764A5.769 5.769 0 0 1 0 109.592a5.77 5.77 0 0 1 5.775-5.765M230.999 144.178c0-3.035 2.351-5.516 5.334-5.743v-.021h11.99c3.19 0 5.776 2.58 5.776 5.764a5.77 5.77 0 0 1-5.775 5.764h-11.991v-.022c-2.983-.226-5.334-2.707-5.334-5.742"/>
        <g transform="translate(11.55)">
            <mask id="b" fill="#fff">
                <use xlink:href="#a"/>
            </mask>
            <path fill="#F4F6FF" d="M5.775 80.77h57.75a5.77 5.77 0 0 1 5.775 5.764 5.77 5.77 0 0 1-5.775 5.764H17.325a5.77 5.77 0 0 0-5.775 5.764 5.77 5.77 0 0 0 5.775 5.765h46.2a5.77 5.77 0 0 1 5.775 5.765 5.769 5.769 0 0 1-5.775 5.763 5.77 5.77 0 0 0-5.775 5.765 5.769 5.769 0 0 0 5.775 5.764h11.55a5.77 5.77 0 0 1 5.775 5.766 5.77 5.77 0 0 1-5.775 5.764H28.875a5.769 5.769 0 0 0-5.775 5.764 5.77 5.77 0 0 0 5.775 5.765h57.75a5.77 5.77 0 0 1 5.775 5.764 5.77 5.77 0 0 1-5.775 5.764H75.074a5.77 5.77 0 0 0-5.774 5.765A5.77 5.77 0 0 0 75.075 173h80.85a5.77 5.77 0 0 0 5.775-5.764 5.77 5.77 0 0 0-5.775-5.765h-11.55a5.77 5.77 0 0 1-5.775-5.764 5.77 5.77 0 0 1 5.775-5.764h46.187a5.77 5.77 0 0 0 5.775-5.765 5.77 5.77 0 0 0-5.775-5.764h-23.087a5.77 5.77 0 0 1-5.775-5.764 5.77 5.77 0 0 1 5.774-5.766h11.55c3.19 0 5.775-2.58 5.775-5.764a5.77 5.77 0 0 0-5.775-5.765 5.769 5.769 0 0 1-5.775-5.763 5.77 5.77 0 0 1 5.775-5.765h46.602a5.77 5.77 0 0 0 5.775-5.765 5.77 5.77 0 0 0-5.775-5.764h-23.502a5.77 5.77 0 0 1-5.775-5.764 5.77 5.77 0 0 1 5.775-5.764h57.75a5.77 5.77 0 0 0 5.775-5.765 5.77 5.77 0 0 0-5.775-5.765h-69.312a5.77 5.77 0 0 1-5.775-5.764 5.77 5.77 0 0 1 5.775-5.764h23.112a5.77 5.77 0 0 0 5.775-5.764 5.77 5.77 0 0 0-5.775-5.765h-69.3a5.77 5.77 0 0 1-5.774-5.765 5.769 5.769 0 0 1 5.775-5.763h11.55a5.77 5.77 0 0 0 5.775-5.765 5.77 5.77 0 0 0-5.775-5.765h-23.102a5.771 5.771 0 0 1-5.773-5.766 5.77 5.77 0 0 1 5.773-5.767h11.489a5.77 5.77 0 0 0 5.775-5.767A5.77 5.77 0 0 0 144.312.06h-46.2a5.771 5.771 0 0 0-5.775 5.766 5.771 5.771 0 0 0 5.775 5.767h11.613a5.77 5.77 0 0 1 5.775 5.767 5.771 5.771 0 0 1-5.773 5.766H17.325a5.77 5.77 0 0 0-5.775 5.765 5.77 5.77 0 0 0 5.775 5.765H63.54c3.19 0 5.775 2.58 5.775 5.763a5.77 5.77 0 0 1-5.775 5.765H40.425a5.77 5.77 0 0 0-5.775 5.765 5.77 5.77 0 0 0 5.775 5.764h11.55a5.77 5.77 0 0 1 5.775 5.764 5.77 5.77 0 0 1-5.775 5.764H5.775A5.77 5.77 0 0 0 0 75.005a5.77 5.77 0 0 0 5.775 5.765" mask="url(#b)"/>
        </g>
        <path fill="#FFF" d="M199.96 37.982l-.073 96.471a1.93 1.93 0 0 1-1.927 1.92l-130.001-.098a1.929 1.929 0 0 1-1.924-1.923l.074-96.47a1.93 1.93 0 0 1 1.926-1.922l130.001.1a1.928 1.928 0 0 1 1.923 1.922"/>
        <path fill="#FFF" d="M71.025 120.748l.06-79.161 121.965.091-.06 79.162z"/>
        <path fill="#FFF" d="M71.988 121.709l.06-79.161 121.965.091-.06 79.162z"/>
        <path stroke="#484964" stroke-dasharray="110.4,0,26.87999877929688,6.719999694824219,0,6.719999694824219" stroke-linecap="round" stroke-linejoin="round" stroke-width="1.92" d="M71.988 121.709l.06-79.161 121.965.091-.06 79.162z"/>
        <path stroke="#047DD9" stroke-dasharray="109.4400024414062,0,31.67999877929688,3.840000152587891,0,4.800000000000001" stroke-linecap="round" stroke-linejoin="round" stroke-width="1.92" d="M174.63 85.9l11.25 11.234"/>
        <path stroke="#484964" stroke-dasharray="105.6,0,342.7199951171875,4.800000000000001,0,4.800000000000001" stroke-linecap="round" stroke-linejoin="round" stroke-width="1.92" d="M199.96 37.982l-.073 96.471a1.93 1.93 0 0 1-1.927 1.92l-130.001-.098a1.929 1.929 0 0 1-1.924-1.923l.074-96.47a1.93 1.93 0 0 1 1.926-1.922l130.001.1a1.928 1.928 0 0 1 1.923 1.922z"/>
        <path fill="#FFF" d="M186.538 47.55c-7.265-21.114-30.297-32.35-51.44-25.096-21.147 7.254-32.4 30.252-25.135 51.366 7.264 21.116 30.296 32.352 51.442 25.098 21.144-7.255 32.398-30.252 25.133-51.368M141.87 136.331l-16.71-.012c-.004 4.447-1.116 16.167-1.116 16.167l18.578.024s-.755-11.73-.752-16.179"/>
        <path stroke="#484964" stroke-dasharray="105.6,0,342.7199951171875,3.840000152587891,0,4.800000000000001" stroke-linecap="round" stroke-linejoin="round" stroke-width="1.92" d="M141.87 136.331l-16.71-.012c-.004 4.447-1.116 16.167-1.116 16.167l18.578.024s-.755-11.73-.752-16.179zM114.083 152.51h38.5"/>
        <g>
            <g transform="translate(112.612 28.833)">
                <mask id="d" fill="#fff">
                    <use xlink:href="#c"/>
                </mask>
                <path fill="#FFF" d="M104.791 2.862l-.081 108.671a1.93 1.93 0 0 1-1.927 1.922l-146.283-.11a1.928 1.928 0 0 1-1.923-1.924l.081-108.673a1.929 1.929 0 0 1 1.927-1.92l146.283.11a1.93 1.93 0 0 1 1.923 1.924" mask="url(#d)"/>
            </g>
            <g transform="translate(112.612 35.561)">
                <mask id="f" fill="#fff">
                    <use xlink:href="#e"/>
                </mask>
                <path fill="#FFF" d="M-39.827 89.2L-39.76.41 97.043.514l-.068 88.789z" mask="url(#f)"/>
            </g>
            <g transform="translate(112.612 28.833)">
                <mask id="h" fill="#fff">
                    <use xlink:href="#g"/>
                </mask>
                <path stroke="#047DD9" stroke-dasharray="105.6,0,342.7199951171875,4.800000000000001,0,4.800000000000001" stroke-linecap="round" stroke-linejoin="round" stroke-width="1.92" d="M104.791 2.862l-.081 108.671a1.93 1.93 0 0 1-1.927 1.922l-146.283-.11a1.928 1.928 0 0 1-1.923-1.924l.081-108.673a1.929 1.929 0 0 1 1.927-1.92l146.283.11a1.93 1.93 0 0 1 1.923 1.924z" mask="url(#h)"/>
            </g>
            <g transform="translate(112.612 36.522)">
                <mask id="j" fill="#fff">
                    <use xlink:href="#i"/>
                </mask>
                <path fill="#4A48BC" d="M-38.747 89.316l.066-88.789L98.121.631l-.066 88.788z" mask="url(#j)"/>
            </g>
            <g transform="translate(112.612 36.522)">
                <mask id="l" fill="#fff">
                    <use xlink:href="#k"/>
                </mask>
                <path stroke="#2E2682" stroke-dasharray="28.8,0,298.560009765625,4.800000000000001,0,4.800000000000001" stroke-linecap="round" stroke-linejoin="round" stroke-width="1.92" d="M-38.747 89.316l.066-88.789L98.121.631l-.066 88.788z" mask="url(#l)"/>
            </g>
        </g>
        <g>
            <path stroke="#2E2682" stroke-dasharray="109.4400024414062,0,45.12000122070313,3.840000152587891,0,4.800000000000001" stroke-linecap="round" stroke-linejoin="round" stroke-width="1.92" d="M183.716 60.686c0 19.56-15.878 35.415-35.466 35.415-19.587 0-35.465-15.856-35.465-35.415 0-19.56 15.878-35.415 35.465-35.415 19.588 0 35.466 15.855 35.466 35.415z"/>
            <path fill="#00A0E3" d="M203.012 122.322l-21.464-21.433c-2.457-2.454 5.216-10.115 7.673-7.66l21.464 21.43c2.456 2.455-5.216 10.117-7.673 7.663"/>
            <path stroke="#047DD9" stroke-dasharray="57.6,0,0,4.800000000000001,0,4.800000000000001" stroke-linecap="round" stroke-linejoin="round" stroke-width="1.92" d="M203.012 122.322l-21.464-21.433c-2.457-2.454 5.216-10.115 7.673-7.66l21.464 21.43c2.456 2.455-5.216 10.117-7.673 7.663z"/>
            <path stroke="#047DD9" stroke-dasharray="96,0,145.9199951171875,5.75999984741211,0,4.800000000000001" stroke-linecap="round" stroke-linejoin="round" stroke-width="1.92" d="M109.963 73.82c-7.265-21.114 3.989-44.112 25.134-51.366 21.145-7.255 44.176 3.982 51.441 25.096 7.264 21.116-3.988 44.113-25.133 51.368-21.146 7.254-44.177-3.982-51.442-25.098z"/>
        </g>
    </g>
</svg>
