<?xml version="1.0" encoding="utf-8"?>
<!-- Generator: Adobe Illustrator 22.0.1, SVG Export Plug-In . SVG Version: 6.00 Build 0)  -->
<svg version="1.0" id="Capa_1" xmlns="http://www.w3.org/2000/svg" xmlns:xlink="http://www.w3.org/1999/xlink" x="0px" y="0px"
	 width="277px" height="173px" viewBox="0 0 277 173" style="enable-background:new 0 0 277 173;" xml:space="preserve">
<style type="text/css">
	.st0{fill:#DAE9F7;}
	.st1{filter:url(#Adobe_OpacityMaskFilter);}
	.st2{fill:#FFFFFF;}
	.st3{mask:url(#b_1_);fill:#F4F6FF;}
	.st4{fill:#4A48BC;}
	.st5{fill:#00A0E3;}
	
		.st6{fill:none;stroke:#2E2682;stroke-width:1.92;stroke-linecap:round;stroke-linejoin:round;stroke-dasharray:24,4.8,0,4.8,14.4,0;}
	
		.st7{fill:none;stroke:#047DD9;stroke-width:1.92;stroke-linecap:round;stroke-linejoin:round;stroke-dasharray:102.72,0,146.88,5.76,0;}
	
		.st8{fill:none;stroke:#484964;stroke-width:1.92;stroke-linecap:round;stroke-linejoin:round;stroke-dasharray:109.44,0,45.12,4.8,0,4.8;}
	
		.st9{fill:none;stroke:#484964;stroke-width:1.92;stroke-linecap:round;stroke-linejoin:round;stroke-dasharray:110.4,0,26.88,6.72,0,6.72;}
	
		.st10{fill:none;stroke:#2E2682;stroke-width:1.92;stroke-linecap:round;stroke-linejoin:round;stroke-dasharray:60.48,0,26.88,6.72,0,6.72;}
	
		.st11{fill:none;stroke:#2E2682;stroke-width:1.92;stroke-linecap:round;stroke-linejoin:round;stroke-dasharray:18.24,0,45.12,4.8,0,4.8;}
</style>
<g>
	<path class="st0" d="M75,138.3h11.5c3.2,0,5.8,2.6,5.8,5.8c0,3.2-2.6,5.8-5.8,5.8H75v0h0c-3.2,0-5.8-2.6-5.8-5.8
		C69.2,140.9,71.8,138.3,75,138.3C75,138.3,75,138.3,75,138.3 M190.4,161.4c0.3,0,0.6,0,0.8,0.1h9.8c0.3,0,0.6-0.1,0.8-0.1
		c3.2,0,5.8,2.6,5.8,5.8c0,3.2-2.6,5.8-5.8,5.8v0.1h-11.5v-0.1c-3.2,0-5.8-2.6-5.8-5.8C184.7,164,187.3,161.4,190.4,161.4
		 M271.2,69.2c-3.2,0-5.8-2.6-5.8-5.8c0,0,0,0,0,0c0-3.2,2.6-5.8,5.8-5.8c0,0,0,0,0,0c3.2,0,5.8,2.6,5.8,5.8
		C277,66.6,274.4,69.2,271.2,69.2 M46.2,28.8c0,3-2.3,5.5-5.3,5.7v0h-12c-3.2,0-5.8-2.6-5.8-5.8c0,0,0,0,0,0c0-3.2,2.6-5.8,5.8-5.8
		c0,0,0,0,0,0h12v0C43.8,23.3,46.2,25.8,46.2,28.8"/>
	<g>
		<defs>
			<filter id="Adobe_OpacityMaskFilter" filterUnits="userSpaceOnUse" x="0" y="0" width="265.5" height="172.9">
				<feColorMatrix  type="matrix" values="1 0 0 0 0  0 1 0 0 0  0 0 1 0 0  0 0 0 1 0"/>
			</filter>
		</defs>
		<mask maskUnits="userSpaceOnUse" x="0" y="0" width="265.5" height="172.9" id="b_1_">
			<g class="st1">
				<path id="a_1_" class="st2" d="M0,86.5V0h265.5v172.9H0V86.5z"/>
			</g>
		</mask>
		<path class="st3" d="M259.7,92.2H202c-3.2,0-5.8-2.6-5.8-5.8c0-3.2,2.6-5.8,5.8-5.8l0,0h46.2c3.2,0,5.8-2.6,5.8-5.8
			c0-3.2-2.6-5.8-5.8-5.8H202c-3.2,0-5.8-2.6-5.8-5.8c0-3.2,2.6-5.8,5.8-5.8c3.2,0,5.8-2.6,5.8-5.8c0-3.2-2.6-5.8-5.8-5.8h-11.5
			c-3.2,0-5.8-2.6-5.8-5.8c0-3.2,2.6-5.8,5.8-5.8h46.2c3.2,0,5.8-2.6,5.8-5.8c0-3.2-2.6-5.8-5.8-5.8h-57.7c-3.2,0-5.8-2.6-5.8-5.8
			c0-3.2,2.6-5.8,5.8-5.8h11.5c3.2,0,5.8-2.6,5.8-5.8c0-3.2-2.6-5.8-5.8-5.8h-80.8c-3.2,0-5.8,2.6-5.8,5.8c0,3.2,2.6,5.8,5.8,5.8
			h11.5c3.2,0,5.8,2.6,5.8,5.8c0,3.2-2.6,5.8-5.8,5.8H75c-3.2,0-5.8,2.6-5.8,5.8c0,3.2,2.6,5.8,5.8,5.8h23.1c3.2,0,5.8,2.6,5.8,5.8
			c0,3.2-2.6,5.8-5.8,5.8H86.6c-3.2,0-5.8,2.6-5.8,5.8c0,3.2,2.6,5.8,5.8,5.8c3.2,0,5.8,2.6,5.8,5.8c0,3.2-2.6,5.8-5.8,5.8H40
			c-3.2,0-5.8,2.6-5.8,5.8l0,0c0,3.2,2.6,5.8,5.8,5.8h23.5c3.2,0,5.8,2.6,5.8,5.8c0,3.2-2.6,5.8-5.8,5.8H5.8C2.6,92.2,0,94.8,0,98
			c0,3.2,2.6,5.8,5.8,5.8H75c3.2,0,5.8,2.6,5.8,5.8c0,0,0,0,0,0c0,3.2-2.6,5.8-5.8,5.8H51.9c-3.2,0-5.8,2.6-5.8,5.8
			c0,3.2,2.6,5.8,5.8,5.8h69.3c3.2,0,5.8,2.6,5.8,5.8c0,3.2-2.6,5.8-5.8,5.8h-11.5c-3.2,0-5.8,2.6-5.8,5.8c0,3.2,2.6,5.8,5.8,5.8
			h23.1c3.2,0,5.8,2.6,5.8,5.8c0,3.2-2.6,5.8-5.8,5.8h-11.5c-3.2,0-5.8,2.6-5.8,5.8c0,3.2,2.6,5.8,5.8,5.8h46.2
			c3.2,0,5.8-2.6,5.8-5.8c0-3.2-2.6-5.8-5.8-5.8c0,0,0,0,0,0h-11.6c-3.2,0-5.8-2.6-5.8-5.8c0-3.2,2.6-5.8,5.8-5.8h92.3
			c3.2,0,5.8-2.6,5.8-5.8c0-3.2-2.6-5.8-5.8-5.8H202c-3.2,0-5.8-2.6-5.8-5.8c0,0,0,0,0,0c0-3.2,2.6-5.8,5.8-5.8h23.1
			c3.2,0,5.8-2.6,5.8-5.8c0-3.2-2.6-5.8-5.8-5.8h-11.5c-3.2,0-5.8-2.6-5.8-5.8c0,0,0,0,0,0c0-3.2,2.6-5.8,5.8-5.8h46.2
			c3.2,0,5.8-2.6,5.8-5.8C265.5,94.8,262.9,92.2,259.7,92.2"/>
	</g>
	<path class="st4" d="M196.5,82.5l-6.1,38.1l-22.5-10.9L69.2,38.1L196.5,82.5z"/>
	<path class="st5" d="M182.1,99.1l7.3,20.5l-22.5-10.9l7.9-13.4L182.1,99.1z"/>
	<path class="st2" d="M196.5,82.5l-6.1,38.1"/>
	<path class="st6" d="M196.5,82.5l-6.1,38.1"/>
	<path class="st7" d="M190.4,120.6l-7.3-20.5l-11.4,11L190.4,120.6z"/>
	<path class="st2" d="M61.6,35.4l82.8,101.9l38.7-37.2"/>
	<path class="st8" d="M61.6,35.4l82.8,101.9l38.7-37.2"/>
	<path class="st2" d="M61.6,35.4l153.9,22.1l-18.9,25"/>
	<path class="st9" d="M61.6,35.4l153.9,22.1l-18.9,25"/>
	<path class="st2" d="M196.5,82.5l-135-47.1"/>
	<path class="st10" d="M196.5,82.5l-135-47.1"/>
	<g>
		<path class="st2" d="M183,100.1L61.6,35.4"/>
		<path class="st11" d="M183,100.1L61.6,35.4"/>
	</g>
	<g>
		<path class="st2" d="M61.6,35.4l77.9,11.2"/>
		<path class="st9" d="M61.6,35.4l77.9,11.2"/>
	</g>
	<g>
		<path class="st2" d="M61.6,35.4l82.8,101.9"/>
		<path class="st8" d="M61.6,35.4l82.8,101.9"/>
	</g>
</g>
</svg>
