<svg xmlns="http://www.w3.org/2000/svg" xmlns:xlink="http://www.w3.org/1999/xlink" width="277" height="173" viewBox="0 0 277 173">
    <defs>
        <path id="a" d="M0 86.471V0h265.458v172.942H0z"/>
    </defs>
    <g fill="none" fill-rule="evenodd">
        <path fill="#DAE9F7" d="M75.015 138.346h11.548c3.186 0 5.77 2.58 5.77 5.764a5.768 5.768 0 0 1-5.77 5.765H75.02v-.001h-.006a5.767 5.767 0 0 1-5.77-5.764 5.767 5.767 0 0 1 5.77-5.764M190.438 161.404c.284 0 .563.027.837.067h9.836c.274-.04.552-.067.837-.067a5.768 5.768 0 0 1 5.771 5.764 5.766 5.766 0 0 1-5.752 5.763V173h-11.53v-.067a5.767 5.767 0 0 1-5.77-5.764 5.768 5.768 0 0 1 5.77-5.764M271.23 69.173a5.767 5.767 0 0 1-5.772-5.764 5.767 5.767 0 0 1 5.771-5.765c3.187 0 5.771 2.58 5.771 5.765a5.768 5.768 0 0 1-5.77 5.764M46.167 28.822c0 3.035-2.35 5.517-5.33 5.743v.022H28.853a5.767 5.767 0 0 1-5.77-5.765 5.767 5.767 0 0 1 5.77-5.764h11.982v.021c2.981.227 5.33 2.709 5.33 5.743"/>
        <g>
            <mask id="b" fill="#fff">
                <use xlink:href="#a"/>
            </mask>
            <path fill="#F4F6FF" d="M259.688 92.23h-57.709a5.769 5.769 0 0 1-5.77-5.764 5.767 5.767 0 0 1 5.77-5.764H248.146a5.769 5.769 0 0 0 5.77-5.764 5.768 5.768 0 0 0-5.77-5.765h-46.167a5.768 5.768 0 0 1-5.77-5.764 5.768 5.768 0 0 1 5.77-5.765 5.768 5.768 0 0 0 5.771-5.764 5.768 5.768 0 0 0-5.77-5.764h-11.542a5.769 5.769 0 0 1-5.771-5.765 5.768 5.768 0 0 1 5.77-5.765H236.605c3.187 0 5.771-2.58 5.771-5.764a5.768 5.768 0 0 0-5.77-5.764h-57.71a5.768 5.768 0 0 1-5.77-5.765 5.769 5.769 0 0 1 5.77-5.765h11.542c3.187 0 5.771-2.58 5.771-5.764A5.769 5.769 0 0 0 190.438 0h-80.792a5.769 5.769 0 0 0-5.771 5.764 5.768 5.768 0 0 0 5.77 5.764h11.543a5.769 5.769 0 0 1 5.77 5.765 5.768 5.768 0 0 1-5.77 5.765H75.032a5.767 5.767 0 0 0-5.77 5.764 5.767 5.767 0 0 0 5.77 5.764h23.071c3.187 0 5.771 2.58 5.771 5.765a5.769 5.769 0 0 1-5.77 5.765H86.561a5.768 5.768 0 0 0-5.77 5.764 5.768 5.768 0 0 0 5.77 5.764c3.187 0 5.771 2.58 5.771 5.765a5.768 5.768 0 0 1-5.77 5.764H39.995a5.768 5.768 0 0 0-5.771 5.765 5.769 5.769 0 0 0 5.77 5.764H63.48c3.187 0 5.771 2.58 5.771 5.764a5.769 5.769 0 0 1-5.77 5.765H5.77A5.768 5.768 0 0 0 0 97.995a5.768 5.768 0 0 0 5.77 5.764h69.263a5.768 5.768 0 0 1 5.771 5.765 5.767 5.767 0 0 1-5.77 5.764H51.936a5.769 5.769 0 0 0-5.77 5.765 5.767 5.767 0 0 0 5.77 5.763h69.25a5.769 5.769 0 0 1 5.771 5.765 5.768 5.768 0 0 1-5.77 5.765h-11.542a5.768 5.768 0 0 0-5.771 5.765 5.769 5.769 0 0 0 5.77 5.764h23.086a5.769 5.769 0 0 1 5.769 5.767 5.77 5.77 0 0 1-5.769 5.767H121.25a5.769 5.769 0 0 0-5.77 5.766 5.77 5.77 0 0 0 5.77 5.767h46.167a5.769 5.769 0 0 0 5.77-5.767 5.768 5.768 0 0 0-5.77-5.766h-11.603a5.77 5.77 0 0 1-5.771-5.767 5.769 5.769 0 0 1 5.769-5.767h92.335a5.769 5.769 0 0 0 5.77-5.764 5.768 5.768 0 0 0-5.77-5.765h-46.182a5.767 5.767 0 0 1-5.771-5.765 5.768 5.768 0 0 1 5.77-5.765h23.1c3.186 0 5.77-2.58 5.77-5.763a5.769 5.769 0 0 0-5.77-5.765H213.52a5.767 5.767 0 0 1-5.771-5.764 5.769 5.769 0 0 1 5.77-5.765h46.168c3.186 0 5.77-2.58 5.77-5.764a5.768 5.768 0 0 0-5.77-5.764" mask="url(#b)"/>
        </g>
        <path fill="#4A48BC" d="M196.513 82.51l-6.146 38.084-22.49-10.936L69.18 38.101z"/>
        <path fill="#00A0E3" d="M182.08 99.113l7.326 20.52-22.492-10.935 7.927-13.437z"/>
        <path fill="#FFF" d="M196.513 82.51l-6.146 38.084"/>
        <path stroke="#2E2682" stroke-dasharray="24,4.800000000000001,0,4.800000000000001,14.4,0" stroke-linecap="round" stroke-linejoin="round" stroke-width="1.92" d="M196.513 82.51l-6.146 38.084"/>
        <path stroke="#047DD9" stroke-dasharray="102.7199951171875,0,146.8800048828125,5.75999984741211,0" stroke-linecap="round" stroke-linejoin="round" stroke-width="1.92" d="M190.367 120.594l-7.325-20.52-11.446 10.992z"/>
        <path fill="#FFF" d="M61.556 35.44l82.776 101.879 38.711-37.244"/>
        <path stroke="#484964" stroke-dasharray="109.4400024414062,0,45.12000122070313,4.800000000000001,0,4.800000000000001" stroke-linecap="round" stroke-linejoin="round" stroke-width="1.92" d="M61.556 35.44l82.776 101.879 38.711-37.244"/>
        <path fill="#FFF" d="M61.556 35.44l153.888 22.102-18.93 24.97"/>
        <path stroke="#484964" stroke-dasharray="110.4,0,26.87999877929688,6.719999694824219,0,6.719999694824219" stroke-linecap="round" stroke-linejoin="round" stroke-width="1.92" d="M61.556 35.44l153.888 22.102-18.93 24.97"/>
        <path fill="#FFF" d="M196.513 82.51L61.555 35.44"/>
        <path stroke="#2E2682" stroke-dasharray="60.47999877929688,0,26.87999877929688,6.719999694824219,0,6.719999694824219" stroke-linecap="round" stroke-linejoin="round" stroke-width="1.92" d="M196.513 82.51L61.555 35.44"/>
        <g>
            <path fill="#FFF" d="M183.043 100.075L61.555 35.44"/>
            <path stroke="#2E2682" stroke-dasharray="18.23999938964844,0,45.12000122070313,4.800000000000001,0,4.800000000000001" stroke-linecap="round" stroke-linejoin="round" stroke-width="1.92" d="M183.043 100.075L61.555 35.44"/>
        </g>
        <g>
            <path fill="#FFF" d="M61.556 35.44l77.875 11.185"/>
            <path stroke="#484964" stroke-dasharray="110.4,0,26.87999877929688,6.719999694824219,0,6.719999694824219" stroke-linecap="round" stroke-linejoin="round" stroke-width="1.92" d="M61.556 35.44l77.875 11.185"/>
        </g>
        <g>
            <path fill="#FFF" d="M61.556 35.44l82.776 101.879"/>
            <path stroke="#484964" stroke-dasharray="109.4400024414062,0,45.12000122070313,4.800000000000001,0,4.800000000000001" stroke-linecap="round" stroke-linejoin="round" stroke-width="1.92" d="M61.556 35.44l82.776 101.879"/>
        </g>
    </g>
</svg>
