<?xml version="1.0" encoding="UTF-8"?>
<svg width="381px" height="420px" viewBox="0 0 381 420" version="1.1" xmlns="http://www.w3.org/2000/svg" xmlns:xlink="http://www.w3.org/1999/xlink">
    <!-- Generator: Sketch 48.2 (47327) - http://www.bohemiancoding.com/sketch -->
    <title>rakieta</title>
    <desc>Created with Sketch.</desc>
    <defs>
        <linearGradient x1="50%" y1="138.318478%" x2="48.8899708%" y2="0%" id="linearGradient-1">
            <stop stop-color="#754A98" offset="0%"></stop>
            <stop stop-color="#050D39" offset="100%"></stop>
        </linearGradient>
        <path d="M0.932,190.427 C0.932,295.361 85.998,380.427 190.932,380.427 C295.868,380.427 380.933,295.361 380.933,190.427 C380.933,85.493 295.868,0.427 190.932,0.427 C85.998,0.427 0.932,85.493 0.932,190.427" id="path-2"></path>
        <linearGradient x1="50%" y1="0%" x2="50%" y2="98.378762%" id="linearGradient-4">
            <stop stop-color="#FFB612" offset="0%"></stop>
            <stop stop-color="#FFFFFF" stop-opacity="0" offset="100%"></stop>
        </linearGradient>
    </defs>
    <g id="cookies2" stroke="none" stroke-width="1" fill="none" fill-rule="evenodd" transform="translate(-405.000000, -4265.000000)">
        <g id="rakieta" transform="translate(405.000000, 4275.000000)">
            <g id="Group-27" transform="translate(0.000000, 29.000000)">
                <mask id="mask-3" fill="white">
                    <use xlink:href="#path-2"></use>
                </mask>
                <use id="Fill-1" fill="url(#linearGradient-1)" xlink:href="#path-2"></use>
                <path d="M372.585593,281.473899 C375.408849,287.038268 377,293.333317 377,300 C377,301.878658 376.873646,303.727805 376.628974,305.539406 C388.950497,312.146069 363.7969,345.859186 301.168184,406.678756 L32,381 L32,328.176086 C17.9236829,322.449223 8,308.633512 8,292.5 C8,271.237037 25.2370371,254 46.5,254 C62.0345624,254 75.4202246,263.200535 81.5051144,276.449734 C85.3761793,273.056678 90.4479081,271 96,271 C108.150264,271 118,280.849736 118,293 C118,294.915852 117.755107,296.774505 117.294916,298.546365 C123.151204,294.421983 130.29276,292 138,292 C155.318688,292 169.781059,304.229347 173.222616,320.523544 C179.02493,314.644034 187.08691,311 196,311 C205.026967,311 213.180937,314.737744 218.998672,320.749992 C222.960563,303.702523 238.246865,291 256.5,291 C259.428541,291 262.280712,291.326977 265.021998,291.946416 C265.007387,291.632778 265,291.317251 265,291 C265,279.954305 273.954305,271 285,271 C291.46954,271 297.221624,274.071798 300.877296,278.836439 C306.975924,268.736956 317.307596,261.480875 329.414407,259.526101 C326.591151,253.961732 325,247.666683 325,241 C325,218.356325 343.356325,200 366,200 C388.643675,200 407,218.356325 407,241 C407,261.401904 392.098385,278.32335 372.585593,281.473899 Z" id="Combined-Shape" fill-opacity="0.87" fill="#141334" opacity="0.26879529" mask="url(#mask-3)"></path>
                <path d="M94.3070166,414.075501 C89.5827223,415.330945 84.6194943,416 79.5,416 C47.7436269,416 22,390.256373 22,358.5 C22,353.163361 22.7270153,347.996526 24.0874069,343.093133 C17.2372818,346.858314 9.36874963,349 1,349 C-25.509668,349 -47,327.509668 -47,301 C-47,274.490332 -25.509668,253 1,253 C27.509668,253 49,274.490332 49,301 C49,304.19105 48.6886121,307.309371 48.0945645,310.326236 C57.1230324,304.42838 67.9111457,301 79.5,301 C107.092258,301 130.145251,320.434905 135.716558,346.362295 C149.289426,337.893442 165.323251,333 182.5,333 C199.77076,333 215.88605,337.947154 229.506079,346.50167 C238.933116,307.760653 273.857853,279 315.5,279 C321.55602,279 327.469968,279.608285 333.184077,280.76709 C335.327111,256.239966 355.916688,237 381,237 C407.509668,237 429,258.490332 429,285 C429,306.28149 415.150356,324.328222 395.972511,330.618755 C401.126469,341.845947 404,354.337399 404,367.5 C404,416.3772 364.3772,456 315.5,456 C298.22924,456 282.11395,451.052846 268.493921,442.49833 C259.066884,481.239347 224.142147,510 182.5,510 C133.6228,510 94,470.3772 94,421.5 C94,418.999593 94.1036941,416.523405 94.3070166,414.075501 Z" id="Combined-Shape" fill="#8287D5" opacity="0.14305933" mask="url(#mask-3)"></path>
                <g id="planeta" mask="url(#mask-3)">
                    <g transform="translate(-25.000000, 200.000000)">
                        <path d="M110.1396,70.0528 C110.1396,92.1448 92.2296,110.0528 70.1396,110.0528 C48.0476,110.0528 30.1396,92.1448 30.1396,70.0528 C30.1396,47.9608 48.0476,30.0528 70.1396,30.0528 C92.2296,30.0528 110.1396,47.9608 110.1396,70.0528" id="Fill-2" stroke="none" fill="#46E051" fill-rule="evenodd"></path>
                        <path d="M125,70 C125,100.3765 100.37375,125 70,125 C39.6235,125 15,100.3765 15,70 C15,39.6235 39.6235,15 70,15 C100.37375,15 125,39.6235 125,70" id="Fill-2" stroke="none" fill="#46E051" fill-rule="evenodd" opacity="0.2"></path>
                        <path d="M140,70 C140,108.661 108.6575,140 70,140 C31.339,140 0,108.661 0,70 C0,31.339 31.339,0 70,0 C108.6575,0 140,31.339 140,70" id="Fill-2" stroke="none" fill-opacity="0.2" fill="#46E051" fill-rule="evenodd"></path>
                        <path d="M110.1396,70.0528 C110.1396,92.1448 92.2296,110.0528 70.1396,110.0528 C48.0476,110.0528 30.1396,92.1448 30.1396,70.0528 C30.1396,47.9608 48.0476,30.0528 70.1396,30.0528 C92.2296,30.0528 110.1396,47.9608 110.1396,70.0528 Z" id="Stroke-4" stroke="#11840B" stroke-width="4" fill="none" stroke-linecap="round" stroke-linejoin="round" stroke-dasharray="106,0,40,10,0,10"></path>
                        <path d="M48.7402,42.25 C46.3282,47 44.9402,52.36 44.9402,58.052 C44.9402,77.382 60.6102,93.052 79.9402,93.052 C87.9202,93.052 95.2522,90.352 101.1402,85.856 C95.3622,97.236 83.5762,105.052 69.9402,105.052 C50.6102,105.052 34.9402,89.382 34.9402,70.052 C34.9402,58.704 40.3662,48.644 48.7402,42.25" id="Fill-6" stroke="none" fill="#16B22F" fill-rule="evenodd"></path>
                        <path d="M63,76.5 C63,82.29915 58.298625,87 52.5,87 C46.70085,87 42,82.29915 42,76.5 C42,70.70085 46.70085,66 52.5,66 C58.298625,66 63,70.70085 63,76.5" id="Fill-2" stroke="none" fill="#46E051" fill-rule="evenodd"></path>
                    </g>
                </g>
            </g>
            <g id="Group-19" transform="translate(157.000000, 0.080000)">
                <path d="M33.9329,0.1067 C33.9329,0.1067 0.4529,77.1467 0.4529,95.1467 C0.4529,113.1467 5.8529,197.7467 11.9729,219.3467 L55.8929,219.3467 C62.0129,197.7467 67.4129,113.1467 67.4129,95.1467 C67.4129,77.1467 33.9329,0.1067 33.9329,0.1067" id="Fill-3" fill="#FFFFFF"></path>
                <path d="M33.9329,0.1067 C33.9329,0.1067 0.4529,77.1467 0.4529,95.1467 C0.4529,113.1467 5.8529,197.7467 11.9729,219.3467 L55.8929,219.3467 C62.0129,197.7467 67.4129,113.1467 67.4129,95.1467 C67.4129,77.1467 33.9329,0.1067 33.9329,0.1067 Z" id="Stroke-5" stroke="#150F49" stroke-width="8"></path>
                <path d="M16.0639,43.7927 L51.8019,43.7927 C43.0729,21.1387 33.9329,0.1067 33.9329,0.1067 C33.9329,0.1067 24.7929,21.1387 16.0639,43.7927 Z" id="Fill-7" fill-opacity="0.87" fill="#4A48BC"></path>
                <path d="M33.9329,0.1067 C33.9329,0.1067 24.7929,21.1387 16.0639,43.7927 L51.8019,43.7927 C43.0729,21.1387 33.9329,0.1067 33.9329,0.1067 Z" id="Stroke-9" stroke="#150F49" stroke-width="8"></path>
                <path d="M45.993,81.7195 C45.993,88.3795 40.594,93.7795 33.933,93.7795 C27.272,93.7795 21.873,88.3795 21.873,81.7195 C21.873,75.0585 27.272,69.6595 33.933,69.6595 C40.594,69.6595 45.993,75.0585 45.993,81.7195" id="Fill-11" fill="#4A48BC"></path>
                <path d="M45.993,81.7195 C45.993,88.3795 40.594,93.7795 33.933,93.7795 C27.272,93.7795 21.873,88.3795 21.873,81.7195 C21.873,75.0585 27.272,69.6595 33.933,69.6595 C40.594,69.6595 45.993,75.0585 45.993,81.7195 Z" id="Stroke-13" stroke="#150F49" stroke-width="8"></path>
                <path d="M43.5809,113.7053 C43.5809,119.0343 39.2619,123.3533 33.9329,123.3533 C28.6039,123.3533 24.2849,119.0343 24.2849,113.7053 C24.2849,108.3763 28.6039,104.0573 33.9329,104.0573 C39.2619,104.0573 43.5809,108.3763 43.5809,113.7053" id="Fill-15" fill="#4A48BC"></path>
                <path d="M43.5809,113.7053 C43.5809,119.0343 39.2619,123.3533 33.9329,123.3533 C28.6039,123.3533 24.2849,119.0343 24.2849,113.7053 C24.2849,108.3763 28.6039,104.0573 33.9329,104.0573 C39.2619,104.0573 43.5809,108.3763 43.5809,113.7053 Z" id="Stroke-17" stroke="#150F49" stroke-width="8"></path>
            </g>
            <g id="Group-42" transform="translate(48.000000, 115.080000)">
                <polygon id="Page-1" fill="url(#linearGradient-4)" points="142.996 98.92 126 111.085727 130.999 294.92 154.991 294.92 159.99 111.085727"></polygon>
                <path d="M152.5809,27.4612 C152.5809,32.7892 148.2619,37.1092 142.9329,37.1092 C137.6039,37.1092 133.2849,32.7892 133.2849,27.4612 C133.2849,22.1322 137.6039,17.8132 142.9329,17.8132 C148.2619,17.8132 152.5809,22.1322 152.5809,27.4612 Z" id="Fill-22" fill="#4A48BC"></path>
                <path d="M152.5809,27.4612 C152.5809,32.7892 148.2619,37.1092 142.9329,37.1092 C137.6039,37.1092 133.2849,32.7892 133.2849,27.4612 C133.2849,22.1322 137.6039,17.8132 142.9329,17.8132 C148.2619,17.8132 152.5809,22.1322 152.5809,27.4612 Z" id="Stroke-24" stroke="#150F49" stroke-width="8"></path>
                <polygon id="Fill-26" fill="#4A48BC" points="136.933 200.227 148.933 200.227 148.933 90.428 136.933 90.428"></polygon>
                <polygon id="Stroke-28" stroke="#150F49" stroke-width="8" points="136.933 200.227 148.933 200.227 148.933 90.428 136.933 90.428"></polygon>
                <polygon id="Fill-29" fill="#4A48BC" points="83.3045 158.7668 83.3045 89.2878 114.2735 53.2868 120.9375 104.5398 91.9445 158.7668"></polygon>
                <polygon id="Stroke-30" stroke="#150F49" stroke-width="8" points="83.3045 158.7668 83.3045 89.2878 114.2735 53.2868 120.9375 104.5398 91.9445 158.7668"></polygon>
                <polygon id="Fill-31" fill="#4A48BC" points="202.5613 158.7668 202.5613 89.2878 171.5923 53.2868 164.9283 104.5398 193.9213 158.7668"></polygon>
                <polygon id="Stroke-32" stroke="#150F49" stroke-width="8" points="202.5613 158.7668 202.5613 89.2878 171.5923 53.2868 164.9283 104.5398 193.9213 158.7668"></polygon>
                <path d="M8.6693,44.4475 L0.1843,52.9325" id="Stroke-33" stroke="#FFFFFF" stroke-width="4" stroke-linecap="round"></path>
                <path d="M9.0228,53.2864 L0.5378,44.8014" id="Stroke-34" stroke="#FFFFFF" stroke-width="4" stroke-linecap="round"></path>
                <path d="M289.6136,203.7581 L277.6136,203.7581" id="Stroke-35" stroke="#FFFFFF" stroke-width="4" stroke-linecap="round"></path>
                <path d="M283.6136,210.2581 L283.6136,198.2581" id="Stroke-36" stroke="#FFFFFF" stroke-width="4" stroke-linecap="round"></path>
                <path d="M196.5931,231.7581 C196.5931,232.8621 195.6971,233.7581 194.5931,233.7581 C193.4891,233.7581 192.5931,232.8621 192.5931,231.7581 C192.5931,230.6541 193.4891,229.7581 194.5931,229.7581 C195.6971,229.7581 196.5931,230.6541 196.5931,231.7581" id="Fill-37" fill="#FFFFFF"></path>
                <path d="M271.016,4.3533 C271.016,6.5623 269.225,8.3533 267.016,8.3533 C264.806,8.3533 263.016,6.5623 263.016,4.3533 C263.016,2.1443 264.806,0.3533 267.016,0.3533 C269.225,0.3533 271.016,2.1443 271.016,4.3533" id="Fill-38" fill="#FFFFFF"></path>
                <path d="M40.2386,248.3088 C40.2386,250.5178 38.4476,252.3088 36.2386,252.3088 C34.0296,252.3088 32.2386,250.5178 32.2386,248.3088 C32.2386,246.0998 34.0296,244.3088 36.2386,244.3088 C38.4476,244.3088 40.2386,246.0998 40.2386,248.3088" id="Fill-39" fill="#FFFFFF"></path>
                <path d="M195.7444,43.9475 L183.7444,43.9475" id="Stroke-40" stroke="#FFFFFF" stroke-width="4" stroke-linecap="round"></path>
                <path d="M189.7444,50.4475 L189.7444,38.4475" id="Stroke-41" stroke="#FFFFFF" stroke-width="4" stroke-linecap="round"></path>
            </g>
        </g>
    </g>
</svg>