<svg xmlns="http://www.w3.org/2000/svg" xmlns:xlink="http://www.w3.org/1999/xlink" width="441" height="441" viewBox="0 0 441 441">
    <defs>
        <linearGradient id="b" x1="48.89%" x2="48.89%" y1="66.775%" y2="-19.804%">
            <stop offset="0%" stop-color="#754A98"/>
            <stop offset="100%" stop-color="#050D39"/>
        </linearGradient>
        <path id="a" d="M440.918 220.5c0 121.667-98.677 220.3-220.4 220.3C98.797 440.8.12 342.166.12 220.5.12 98.832 98.796.2 220.52.2 342.24.2 440.918 98.832 440.918 220.5"/>
        <linearGradient id="d" x1="50%" x2="50%" y1="-126.081%" y2="100%">
            <stop offset="0%" stop-color="#CCDFF5"/>
            <stop offset="100%" stop-color="#9DBBE8"/>
        </linearGradient>
        <path id="e" d="M50.83 2.945L14.247 20.71C5.75 24.836.559 32.666.736 41.094l.476 28.838c.092 4.445 125.06 4.445 125.152 0l.477-28.838c.174-8.428-5.016-16.258-13.512-20.384L76.746 2.945C72.722.99 68.254.013 63.787.013c-4.466 0-8.933.977-12.957 2.932"/>
        <path id="g" d="M.639 273.585h180.897V90.146C181.536 40.366 141.04.01 91.087.01 41.134.009.64 40.365.64 90.146v183.439z"/>
        <path id="i" d="M.639 90.146v183.439h180.897V90.146C181.536 40.366 141.04.01 91.087.01 41.134.009.64 40.365.64 90.146z"/>
        <path id="k" d="M.639 90.146v183.439h180.897V90.146C181.536 40.366 141.04.01 91.087.01 41.134.009.64 40.365.64 90.146"/>
        <path id="m" d="M.639 90.146v183.439h180.897V90.146C181.536 40.366 141.04.01 91.087.01 41.134.009.64 40.365.64 90.146z"/>
        <path id="o" d="M87.48 26.662L69.892 50.864 52.306 26.662 51.482.556S.367 24.336.367 35.934v35.539h139.051V35.934c0-11.598-51.114-35.378-51.114-35.378l-.825 26.106z"/>
        <path id="q" d="M62.554.641C30.268.641.55 6.14.55 38.394v86.138c0 32.255 30.82 66.343 63.105 66.343h10.273c32.287 0 63.106-34.088 63.106-66.343V38.394C137.034 6.14 107.315.641 75.028.641H62.554z"/>
        <linearGradient id="s" x1="50%" x2="50%" y1="-12.128%" y2="108.622%">
            <stop offset="0%" stop-color="#7926AD"/>
            <stop offset="54.828%" stop-color="#5D82D9"/>
            <stop offset="100%" stop-color="#AED7F1"/>
        </linearGradient>
        <linearGradient id="t" x1="148.572%" x2="-91.681%" y1="4.41%" y2="105.804%">
            <stop offset="0%" stop-color="#A679E0"/>
            <stop offset="100%" stop-color="#2F1268"/>
        </linearGradient>
    </defs>
    <g fill="none" fill-rule="evenodd">
        <mask id="c" fill="#fff">
            <use xlink:href="#a"/>
        </mask>
        <use fill="url(#b)" xlink:href="#a"/>
        <g mask="url(#c)">
            <g opacity=".432">
                <path fill="#82A2E2" d="M437.144 123.09c.008.42.012.841.012 1.263 0 33.815-27.424 61.228-61.255 61.228-31.697 0-57.77-24.064-60.933-54.911a36.12 36.12 0 0 1-20.883 6.607c-4.347 0-8.515-.765-12.378-2.166-1.504 32.478-28.323 58.348-61.188 58.348-33.832 0-61.256-27.413-61.256-61.227 0-1.72.071-3.424.21-5.108-7.016 7.563-17.043 12.295-28.176 12.295-21.004 0-38.07-16.846-38.415-37.757-7.308 3.684-15.566 5.758-24.31 5.758-25.944 0-47.62-18.269-52.854-42.638-11.22 6.563-24.28 10.324-38.22 10.324-41.855 0-75.786-33.915-75.786-75.752 0-41.836 33.93-75.753 75.786-75.753 41.857 0 75.787 33.917 75.787 75.753 0 .736-.01 1.47-.031 2.2a54.097 54.097 0 0 1 15.319-2.2c29.855 0 54.057 24.192 54.057 54.034 0 3.577-.348 7.074-1.012 10.457a38.505 38.505 0 0 1 9.68-1.229c20.258 0 36.854 15.673 38.314 35.55 10.993-16.38 29.69-27.162 50.907-27.162 15.494 0 29.645 5.75 40.433 15.232 5.66-12.657 18.366-21.477 33.133-21.477 15.002 0 27.877 9.102 33.398 22.083 11.207-14.43 28.727-23.716 48.418-23.716 3.278 0 6.497.257 9.635.753-.008-.42-.012-.841-.012-1.263 0-33.816 27.424-61.228 61.255-61.228s61.256 27.412 61.256 61.228c0 33.815-27.425 61.227-61.256 61.227a61.74 61.74 0 0 1-9.635-.753z" opacity=".3"/>
                <path fill="url(#d)" d="M512.29 207.113c.513 2.495.783 5.08.783 7.726 0 21.073-17.09 38.154-38.172 38.154-4.607 0-9.023-.815-13.112-2.31.007.415.01.83.01 1.248 0 37.793-30.65 68.43-68.461 68.43-30.194 0-55.823-19.537-64.923-46.654a38.558 38.558 0 0 1-8.896 1.034 38.28 38.28 0 0 1-23.484-8.002c-3.746 30.227-29.533 53.623-60.787 53.623-32.28 0-58.729-24.957-61.085-56.621a61.816 61.816 0 0 1-8.578.596c-33.831 0-61.256-27.414-61.256-61.228a61.085 61.085 0 0 1 3.723-21.067c-10.188 6.012-22.07 9.461-34.756 9.461-37.81 0-68.462-30.638-68.462-68.43 0-37.794 30.651-68.431 68.462-68.431 37.81 0 68.462 30.637 68.462 68.43 0 9.234-1.83 18.04-5.147 26.078 8.626-4.638 18.493-7.269 28.974-7.269 32.28 0 58.728 24.957 61.084 56.621a61.817 61.817 0 0 1 8.579-.596c19.818 0 37.438 9.408 48.635 23.999 5.704-14.073 19.51-23.999 35.636-23.999a38.278 38.278 0 0 1 23.288 7.854c12.518-13.68 30.522-22.26 50.53-22.26 17.667 0 33.77 6.688 45.914 17.67 5.5-14.32 19.388-24.486 35.65-24.486 5.29 0 10.328 1.076 14.907 3.02a32.147 32.147 0 0 1-.141-3.02c0-17.545 14.23-31.769 31.784-31.769 17.553 0 31.783 14.224 31.783 31.77 0 17.545-14.23 31.768-31.783 31.768-3.185 0-6.26-.468-9.161-1.34z" opacity=".5" transform="translate(-99 -77)"/>
                <path fill="#AED9F1" d="M276.387 211.885c-4.13 24.15-25.173 42.531-50.512 42.531-16.943 0-31.966-8.22-41.295-20.887-6.58 8.9-17.153 14.672-29.074 14.672-11.245 0-21.29-5.136-27.916-13.188-11.178 11.94-27.085 19.403-44.737 19.403-33.831 0-61.256-27.412-61.256-61.227 0-33.816 27.425-61.228 61.256-61.228 28.75 0 52.875 19.798 59.471 46.499a36.05 36.05 0 0 1 13.182-2.48 35.987 35.987 0 0 1 22.808 8.106c7.577-18.826 26.017-32.116 47.561-32.116 3.202 0 6.335.294 9.373.855 5.357-20.145 23.73-34.99 45.57-34.99 14.756 0 27.929 6.776 36.574 17.384 19.704-24.066 49.654-39.426 83.193-39.426 59.342 0 107.45 48.085 107.45 107.4 0 59.315-48.108 107.4-107.45 107.4-56.919 0-103.5-44.238-107.21-100.193a47.217 47.217 0 0 1-12.557 1.69c-1.494 0-2.972-.07-4.43-.205z" opacity=".7"/>
            </g>
            <path fill="#EBB42D" d="M-43.361 231.151v195.75h180.897V231.15c0-49.78-40.494-90.137-90.449-90.137-49.952 0-90.448 40.356-90.448 90.137z"/>
            <path stroke="#150F49" stroke-width="8" d="M47.087 141.014c-49.952 0-90.448 42.216-90.448 94.291v191.596h180.897V235.305c0-52.075-40.494-94.291-90.449-94.291z"/>
            <path fill="#EEC7C4" d="M127.609 262.528c0 7.588-6.173 13.74-13.788 13.74-7.614 0-13.788-6.152-13.788-13.74 0-7.59 6.174-13.74 13.788-13.74 7.615 0 13.788 6.15 13.788 13.74"/>
            <path stroke="#150F49" stroke-width="8" d="M127.609 262.528c0 7.588-6.173 13.74-13.788 13.74-7.614 0-13.788-6.152-13.788-13.74 0-7.59 6.174-13.74 13.788-13.74 7.615 0 13.788 6.15 13.788 13.74z"/>
            <path fill="#EEC7C4" d="M113.446 188.342l.375 94.598c0 34.662-31.153 63.405-66.266 63.405h-.935c-35.113 0-66.266-28.743-66.266-63.405l.375-94.598h132.717z"/>
            <path stroke="#150F49" stroke-width="8" d="M113.446 249.435l.375 33.505c0 34.662-31.153 63.405-66.266 63.405h-.935c-35.113 0-66.266-28.743-66.266-63.405l.375-33.505"/>
            <path stroke="#FEA09D" stroke-linecap="round" stroke-width="18" d="M47.087 275.194v-11.61"/>
            <path fill="#150F49" d="M26.13 258.406c0 3.642-2.963 6.595-6.618 6.595-3.655 0-6.618-2.953-6.618-6.595 0-3.643 2.963-6.596 6.618-6.596 3.655 0 6.618 2.953 6.618 6.596M81.281 258.406c0 3.642-2.962 6.595-6.618 6.595-3.654 0-6.618-2.953-6.618-6.595 0-3.643 2.964-6.596 6.618-6.596 3.656 0 6.618 2.953 6.618 6.596"/>
            <path fill="#43C3B6" d="M96.905 372.768L65.4 357.47v-10.673H29.325v10.673l-31.503 15.298c-8.496 4.126-13.686 11.956-13.511 20.383l.476 28.84c.093 4.444 125.06 4.444 125.152 0l.477-28.84c.175-8.427-5.015-16.257-13.511-20.383"/>
            <g transform="translate(-16.424 352.058)">
                <mask id="f" fill="#fff">
                    <use xlink:href="#e"/>
                </mask>
                <path fill="#EEC7C4" d="M105.392 11.604c0 22.899-18.627 41.461-41.604 41.461-22.978 0-41.604-18.562-41.604-41.46 0-22.899 18.626-41.462 41.604-41.462 22.977 0 41.604 18.563 41.604 41.461" mask="url(#f)"/>
            </g>
            <g>
                <path stroke="#150F49" stroke-width="8" d="M4.695 233.605a16.644 16.644 0 0 1 14.817-9.033c6.461 0 12.061 3.67 14.818 9.033M60.875 233.605a16.644 16.644 0 0 1 14.818-9.033c6.46 0 12.061 3.67 14.817 9.033"/>
                <path fill="#EEC7C4" d="M29.326 383.827h36.01v-37.03h-36.01z"/>
                <path stroke="#150F49" stroke-width="8" d="M96.905 372.768L65.4 357.47v-10.673H29.325v10.673l-31.503 15.298c-8.496 4.126-13.686 11.956-13.511 20.383v33.75h126.105v-33.75c.175-8.427-5.015-16.257-13.511-20.383z"/>
                <path stroke="#150F49" stroke-width="8" d="M88.779 367.631c-2.004 21.036-19.782 37.493-41.415 37.493-21.42 0-39.058-16.13-41.352-36.865"/>
            </g>
            <g>
                <g transform="translate(-44 141.005)">
                    <mask id="h" fill="#fff">
                        <use xlink:href="#g"/>
                    </mask>
                    <path fill="#EBB42A" d="M100.423 29.418c0 43.638-40.248 79.012-89.897 79.012-49.648 0-89.897-35.374-89.897-79.012 0-43.636 40.249-79.012 89.897-79.012 49.649 0 89.897 35.376 89.897 79.012" mask="url(#h)"/>
                </g>
                <g transform="translate(-44 141.005)">
                    <mask id="j" fill="#fff">
                        <use xlink:href="#i"/>
                    </mask>
                    <path stroke="#150F49" stroke-width="8" d="M100.423 29.418c0 43.638-40.248 79.012-89.897 79.012-49.648 0-89.897-35.374-89.897-79.012 0-43.636 40.249-79.012 89.897-79.012 49.649 0 89.897 35.376 89.897 79.012z" mask="url(#j)"/>
                </g>
                <g transform="translate(-44 141.005)">
                    <mask id="l" fill="#fff">
                        <use xlink:href="#k"/>
                    </mask>
                    <path fill="#EBB427" d="M294.709 24.19c0 49.196-43.528 89.079-97.223 89.079-53.694 0-97.222-39.883-97.222-89.08 0-49.196 43.528-89.078 97.222-89.078 53.695 0 97.223 39.882 97.223 89.079" mask="url(#l)"/>
                </g>
                <g transform="translate(-44 141.005)">
                    <mask id="n" fill="#fff">
                        <use xlink:href="#m"/>
                    </mask>
                    <path stroke="#150F49" stroke-width="8" d="M294.709 24.19c0 49.196-43.528 89.079-97.223 89.079-53.694 0-97.222-39.883-97.222-89.08 0-49.196 43.528-89.078 97.222-89.078 53.695 0 97.223 39.882 97.223 89.079z" mask="url(#n)"/>
                </g>
            </g>
            <g>
                <path stroke="#150F49" stroke-width="8" d="M137.536 260.529v-29.377c0-49.782-40.494-90.138-90.449-90.138-49.952 0-90.448 40.356-90.448 90.138v19.084"/>
                <path fill="#ECA7A2" d="M23.592 287.695c0 7.285-5.927 13.19-13.236 13.19-7.31 0-13.237-5.905-13.237-13.19 0-7.285 5.927-13.19 13.237-13.19 7.31 0 13.236 5.905 13.236 13.19M97.672 287.695c0 7.285-5.927 13.19-13.237 13.19-7.31 0-13.236-5.905-13.236-13.19 0-7.285 5.927-13.19 13.236-13.19 7.31 0 13.237 5.905 13.237 13.19"/>
                <path stroke="#150F49" stroke-width="8" d="M77.42 275.719h-.55c-12.184 0-22.061-9.844-22.061-21.985v-10.443H99.48v10.443c0 12.141-9.876 21.985-22.06 21.985zM17.306 275.719h-.552c-12.183 0-22.06-9.844-22.06-21.985v-10.443h44.672v10.443c0 12.141-9.876 21.985-22.06 21.985zM99.481 243.291h14.34M39.366 249.062H54.81"/>
                <path stroke="#150F49" stroke-linecap="round" stroke-width="8" d="M64.59 303.181c-3.433 3.25-9.848 5.437-17.195 5.437-7.346 0-13.76-2.185-17.194-5.435M54.042 321.196c-1.327.407-3.806.68-6.647.68-2.84 0-5.318-.273-6.647-.68"/>
                <path stroke="#150F49" stroke-width="8" d="M29.326 349.873v19.237M65.337 349.873v19.237"/>
            </g>
            <g>
                <path fill="#172337" d="M110.754 394.808c-8.479 4.126-13.658 11.953-13.483 20.378l.476 28.83c.092 4.443 124.792 4.443 124.884 0l.476-28.83c.175-8.425-5.005-16.252-13.482-20.378l-36.506-17.759c-8.03-3.907-17.829-3.907-25.86 0l-36.505 17.76z"/>
                <path stroke="#150F49" stroke-width="8" d="M147.26 377.049l-36.506 17.76c-8.479 4.125-13.658 11.952-13.483 20.377L97.747 448H222.63l.476-32.814c.175-8.425-5.005-16.252-13.482-20.378l-36.506-17.759c-8.03-3.907-17.829-3.907-25.86 0z"/>
                <path fill="#FADED2" d="M102.517 290.583c0 7.586-6.16 13.736-13.759 13.736-7.598 0-13.758-6.15-13.758-13.736 0-7.587 6.16-13.736 13.758-13.736 7.598 0 13.759 6.15 13.759 13.736"/>
                <path stroke="#150F49" stroke-width="8" d="M102.517 290.583c0 7.586-6.16 13.736-13.759 13.736-7.598 0-13.758-6.15-13.758-13.736 0-7.587 6.16-13.736 13.758-13.736 7.598 0 13.759 6.15 13.759 13.736z"/>
                <path fill="#FADED2" d="M239 290.583c0 7.586-6.16 13.736-13.758 13.736-7.598 0-13.759-6.15-13.759-13.736 0-7.587 6.16-13.736 13.759-13.736 7.598 0 13.758 6.15 13.758 13.736"/>
                <path stroke="#150F49" stroke-width="8" d="M239 290.583c0 7.586-6.16 13.736-13.758 13.736-7.598 0-13.759-6.15-13.759-13.736 0-7.587 6.16-13.736 13.759-13.736 7.598 0 13.758 6.15 13.758 13.736z"/>
                <path fill="#FADED2" d="M162.136 368.055h-10.272c-32.287 0-63.106-34.065-63.106-66.3v-86.08c0-32.235 29.718-37.73 62.005-37.73h12.474c32.286 0 62.004 5.495 62.004 37.73v86.08c0 32.235-30.819 66.3-63.105 66.3"/>
                <path stroke="#150F49" stroke-width="8" d="M162.136 368.055h-10.272c-32.287 0-63.106-34.065-63.106-66.3v-86.08c0-32.235 29.718-37.73 62.005-37.73h12.474c32.286 0 62.004 5.495 62.004 37.73v86.08c0 32.235-30.819 66.3-63.105 66.3z"/>
                <path fill="#EFCBBC" d="M223.453 268.055h-5.89a2.775 2.775 0 0 0-2.778 2.773v31.843c0 34.787-33.647 49.725-39.076 49.725h-2.112c-.06-6.151-7.168-11.126-15.934-11.126-8.767 0-15.875 4.975-15.935 11.126h-3.437c-5.429 0-39.076-14.938-39.076-49.725v-31.843a2.775 2.775 0 0 0-2.777-2.773h-3.391c-6.8 0-4.289-2.17-4.289 5.083v45.196c0 14.56 38.01 48.348 44.808 48.348l23.179 2.14c.17.015.34.015.51 0l23.18-2.14c6.797 0 44.807-37.936 44.807-52.497v-8.767c0-7.253 5.01-37.363-1.789-37.363"/>
                <path stroke="#150F49" stroke-width="8.8" d="M162.136 368.055h-10.272c-32.287 0-63.106-34.065-63.106-66.3v-86.08c0-32.235 29.718-37.73 62.005-37.73h12.474c32.286 0 62.004 5.495 62.004 37.73v86.08c0 32.235-30.819 66.3-63.105 66.3z"/>
                <path stroke="#150F49" stroke-linecap="round" stroke-width="8" d="M175.039 318.334c-3.712 5.418-10.646 9.063-18.59 9.063-7.941 0-14.874-3.644-18.587-9.06"/>
                <path stroke="#FEA09D" stroke-linecap="round" stroke-width="18" d="M157 301.023v-20.88"/>
                <path fill="#150F49" d="M137.188 284.539c0 4.248-3.45 7.692-7.705 7.692s-7.704-3.444-7.704-7.692 3.449-7.692 7.704-7.692 7.705 3.444 7.705 7.692M192.221 284.539c0 4.248-3.449 7.692-7.704 7.692s-7.705-3.444-7.705-7.692 3.45-7.692 7.705-7.692 7.704 3.444 7.704 7.692"/>
                <path fill="#6B4E34" d="M141.59 268.055h-25.315c-2.421 0-4.403-1.978-4.403-4.395v-7.692c0-2.418 1.982-4.396 4.403-4.396h25.316c2.421 0 4.402 1.978 4.402 4.396v7.692c0 2.417-1.98 4.395-4.402 4.395"/>
                <path stroke="#150F49" stroke-width="8" d="M141.59 268.055h-25.315c-2.421 0-4.403-1.978-4.403-4.395v-7.692c0-2.418 1.982-4.396 4.403-4.396h25.316c2.421 0 4.402 1.978 4.402 4.396v7.692c0 2.417-1.98 4.395-4.402 4.395z"/>
                <path fill="#6B4E34" d="M197.725 268.055h-25.316c-2.421 0-4.402-1.978-4.402-4.395v-7.692c0-2.418 1.98-4.396 4.402-4.396h25.316c2.421 0 4.403 1.978 4.403 4.396v7.692c0 2.417-1.982 4.395-4.403 4.395"/>
                <path stroke="#150F49" stroke-width="8" d="M197.725 268.055h-25.316c-2.421 0-4.402-1.978-4.402-4.395v-7.692c0-2.418 1.98-4.396 4.402-4.396h25.316c2.421 0 4.403 1.978 4.403 4.396v7.692c0 2.417-1.982 4.395-4.403 4.395z"/>
                <path fill="#6B4E34" d="M95.362 267.28v-51.585c0-6.19-.205-6.268 5.787-6.268l4.83.05c4.236.107 5.13-2.813 3.97-6.882-4.386-15.38-8.808-29.698-20.448-19.848-3.93 3.326-7.966 4.778-7.966 15.461 0 14.704.906 54.03 1.269 69.229.082 3.403 2.868 6.113 6.278 6.113a6.276 6.276 0 0 0 6.28-6.27"/>
                <path stroke="#150F49" stroke-width="8" d="M95.362 267.28v-51.585c0-6.19-.205-6.268 5.787-6.268l4.83.05c4.236.107 5.13-2.813 3.97-6.882-4.386-15.38-8.808-29.698-20.448-19.848-3.93 3.326-7.966 4.778-7.966 15.461 0 14.704.906 54.03 1.269 69.229.082 3.403 2.868 6.113 6.278 6.113a6.276 6.276 0 0 0 6.28-6.27z"/>
                <path fill="#FFF" d="M142.19 447.348h35.998v-78.503H142.19z"/>
                <path stroke="#150F49" stroke-width="8" d="M142.19 448h35.998v-79.155H142.19z"/>
                <path fill="#6B4E34" d="M227.443 268.055c-4.863 0-8.805-3.936-8.805-8.79v-54.673c0-3.132-3.181-5.264-6.078-4.066-16.68 6.895-56.858 24.702-80.39 17.99-28.944-8.257-50.318-31.297-50.318-70.515h111.644c20.326 0 43.55 14.783 43.55 44.713s-9.603 75.341-9.603 75.341"/>
                <path stroke="#150F49" stroke-width="8" d="M227.443 268.055c-4.863 0-8.805-3.936-8.805-8.79v-54.673c0-3.132-3.181-5.264-6.078-4.066-16.68 6.895-56.858 24.702-80.39 17.99-28.944-8.257-50.318-31.297-50.318-70.515h111.644c20.326 0 43.55 14.783 43.55 44.713s-9.603 75.341-9.603 75.341z"/>
                <path fill="#FADED2" d="M160.19 402.567c-9.941 0-18-8.045-18-17.97v-15.752h35.998v15.752c0 9.925-8.059 17.97-17.999 17.97"/>
                <path stroke="#150F49" stroke-width="8" d="M160.19 402.567c-9.941 0-18-8.045-18-17.97v-15.752h35.998v15.752c0 9.925-8.059 17.97-17.999 17.97z"/>
            </g>
            <g>
                <path fill="#F64A47" d="M351.23 356.923c-8.489 4.124-13.674 11.95-13.499 20.376l.476 28.827c.093 4.442 124.949 4.442 125.04 0l.476-28.827c.175-8.425-5.01-16.252-13.499-20.376l-36.551-17.759c-8.04-3.906-17.851-3.906-25.892 0l-36.55 17.76z"/>
                <path stroke="#150F49" stroke-width="8" d="M387.781 339.164l-36.55 17.76c-8.49 4.123-13.675 11.95-13.5 20.375l.476 32.701h125.04l.476-32.701c.175-8.425-5.01-16.252-13.499-20.376l-36.551-17.759c-5.36-2.604-13.991-2.604-25.892 0z"/>
                <path fill="#FADED2" d="M400.727 364.68c-9.952 0-18.021-8.043-18.021-17.968v-15.751h36.043v15.751c0 9.925-8.07 17.969-18.022 17.969"/>
                <path stroke="#150F49" stroke-width="8" d="M400.727 364.68c-9.952 0-18.021-8.043-18.021-17.968v-15.751h36.043v15.751c0 9.925-8.07 17.969-18.022 17.969z"/>
                <path fill="#F64A47" d="M382.706 344.096v24.379c0 3.34 3.59 5.46 6.529 3.852l11.493-6.286-18.022-21.945z"/>
                <path stroke="#150F49" stroke-linejoin="round" stroke-width="8" d="M382.706 344.096v24.379c0 3.34 3.59 5.46 6.529 3.852l11.493-6.286-18.022-21.945z"/>
                <path fill="#F64A47" d="M418.748 344.096v24.379c0 3.34-3.59 5.46-6.528 3.852l-11.493-6.286 18.021-21.945z"/>
                <path stroke="#150F49" stroke-linejoin="round" stroke-width="8" d="M418.748 344.096v24.379c0 3.34-3.59 5.46-6.528 3.852l-11.493-6.286 18.021-21.945z"/>
                <path fill="#150F49" d="M405.135 382.806a4.402 4.402 0 0 1-4.408 4.395 4.402 4.402 0 0 1-4.408-4.395 4.402 4.402 0 0 1 4.408-4.396 4.402 4.402 0 0 1 4.408 4.396M405.135 396.724a4.402 4.402 0 0 1-4.408 4.395 4.402 4.402 0 0 1-4.408-4.395 4.402 4.402 0 0 1 4.408-4.396 4.402 4.402 0 0 1 4.408 4.396"/>
                <path fill="#FADED2" d="M347.27 258.837c-1.533 7.43-8.818 12.213-16.27 10.684-7.45-1.53-12.248-8.793-10.714-16.223 1.534-7.43 8.819-12.213 16.27-10.684 7.452 1.53 12.249 8.793 10.715 16.223"/>
                <path stroke="#150F49" stroke-width="8" d="M347.27 258.837c-1.533 7.43-8.818 12.213-16.27 10.684-7.45-1.53-12.248-8.793-10.714-16.223 1.534-7.43 8.819-12.213 16.27-10.684 7.452 1.53 12.249 8.793 10.715 16.223z"/>
                <path fill="#FADED2" d="M466.75 181.91l.375 94.561c0 34.65-31.125 63.38-66.206 63.38h-.934c-35.082 0-66.207-28.73-66.207-63.38l.375-94.56h132.598z"/>
                <path stroke="#150F49" stroke-width="8" d="M466.75 242.98l.375 33.49c0 34.65-31.125 63.382-66.206 63.382h-.934c-35.082 0-66.207-28.731-66.207-63.381l.375-33.491"/>
                <path fill="#B58143" d="M442.88 160.638c6.273 0 11.423 1.103 15.624 3.055 32.401 15.055 8.4 80.638 8.4 80.638s-17.403-8.55-17.403-45.91c-6.566-1.054-27.807-4.877-49.05-4.877-21.241 0-42.483 3.823-49.049 4.877 0 37.36-17.403 45.91-17.403 45.91s-24.016-97.314 30.636-97.314c45.551 0 35.817-11.721 78.245-11.721v25.342z"/>
                <path stroke="#150F49" stroke-width="8" d="M440.04 163.206c49.762 0 26.865 81.125 26.865 81.125s-17.404-8.55-17.404-45.91c-6.566-1.054-27.807-4.877-49.05-4.877-21.241 0-42.689 3.2-49.049 4.877 0 37.36-17.403 45.91-17.403 45.91s-15.571-97.314 30.636-97.314c38.13 0 59.481-5.554 72.883-14.69 11.095 11.374 11.935 21.666 2.522 30.88z"/>
                <path stroke="#150F49" stroke-linecap="round" stroke-width="8" d="M419.063 297.779c-3.717 5.417-10.66 9.062-18.612 9.062-7.951 0-14.893-3.644-18.61-9.06"/>
                <path fill="#EFCBBC" d="M387.227 296.163h3.306v-9.842h-3.306zM391.635 296.163h3.306v-9.842h-3.306zM396.043 296.163h3.306v-9.842h-3.306zM400.451 296.163h3.306v-9.842h-3.306zM404.86 296.163h3.305v-9.842h-3.306zM409.268 296.163h3.306v-9.842h-3.306z"/>
                <path stroke="#FEA09D" stroke-linecap="round" stroke-width="18" d="M400.452 278v-20.877"/>
                <path fill="#150F49" d="M380.615 258.54c0 4.248-3.454 7.691-7.714 7.691s-7.715-3.443-7.715-7.691c0-4.248 3.454-7.692 7.715-7.692 4.26 0 7.714 3.444 7.714 7.692M435.717 258.54c0 4.248-3.454 7.691-7.714 7.691s-7.715-3.443-7.715-7.691c0-4.248 3.454-7.692 7.715-7.692 4.26 0 7.714 3.444 7.714 7.692"/>
                <path stroke="#150F49" stroke-width="8" d="M446.186 274.747h-31.408c-3.65 0-6.612-2.951-6.612-6.593v-25.822h44.633v25.822c0 3.642-2.962 6.593-6.613 6.593zM386.125 274.747h-31.408c-3.651 0-6.612-2.951-6.612-6.593v-25.822h44.632v25.822c0 3.642-2.96 6.593-6.612 6.593zM392.737 248.101h15.429M332.214 242.332h15.89M357.582 232.16c2.754-2.61 8.35-4.396 14.804-4.396 6.456 0 12.051 1.785 14.805 4.395M413.713 232.16c2.754-2.61 8.349-4.396 14.805-4.396 6.454 0 12.05 1.785 14.803 4.395"/>
            </g>
            <g>
                <path fill="#FADED2" d="M277.9 429.676c-9.94 0-18-8.05-18-17.982v-45.35H295.9v45.35c0 9.932-8.06 17.982-18 17.982"/>
                <path stroke="#150F49" stroke-width="12.056" d="M277.9 429.676c-9.94 0-18-8.05-18-17.982v-45.35H295.9v45.35c0 9.932-8.06 17.982-18 17.982z"/>
                <path fill="#FFF" d="M257.026 429.676h41.746V408.5h-41.746z"/>
                <path stroke="#150F49" stroke-width="8.8" d="M257.026 429.676h41.746V408.5h-41.746z"/>
                <path fill="#CCE7F6" d="M347.425 450.92h-69.526v-20.61l17.586-24.2.826-26.107s51.114 23.779 51.114 35.378v35.538z"/>
                <path stroke="#150F49" stroke-width="8.8" d="M347.425 450.92h-69.526v-20.61l17.586-24.2.826-26.107s51.114 23.779 51.114 35.378v35.538z"/>
                <path fill="#CCE7F6" d="M208.373 450.92H277.9v-20.61l-17.586-24.2-.826-26.107s-51.114 23.779-51.114 35.378v35.538z"/>
                <path stroke="#150F49" stroke-width="8.8" d="M208.373 450.92H277.9v-20.61l-17.586-24.2-.826-26.107s-51.114 23.779-51.114 35.378v35.538z"/>
                <g transform="translate(208.007 379.447)">
                    <mask id="p" fill="#fff">
                        <use xlink:href="#o"/>
                    </mask>
                    <path fill="#639ACE" d="M-2.75 76.419h13.207v-89.06H-2.75z" mask="url(#p)"/>
                    <path fill="#5CA0E1" d="M23.666 76.419h13.208v-89.06H23.666z" mask="url(#p)" opacity=".8"/>
                    <path fill="#7FB0DE" d="M50.082 76.419H63.29v-89.06H50.082zM76.498 76.419h13.208v-89.06H76.498z" mask="url(#p)" opacity=".6"/>
                    <path fill="#5CA0E1" d="M102.914 76.419h13.208v-89.06h-13.208z" mask="url(#p)" opacity=".8"/>
                    <path fill="#639ACE" d="M129.33 76.419h13.208v-89.06H129.33z" mask="url(#p)"/>
                    <g fill="#CFE3F6" mask="url(#p)" opacity=".3">
                        <path d="M-8.622 58.28h71.91v-8.797h-71.91zM-8.623 31.889h157.03v-8.797H-8.623zM-8.623 5.498h157.03v-8.797H-8.623zM76.475 58.28h71.91v-8.797h-71.91z"/>
                    </g>
                </g>
                <g>
                    <path stroke="#150F49" stroke-width="8" d="M296.31 380.003l-.825 26.106-17.586 24.202-17.586-24.202-.825-26.106s-51.115 23.78-51.115 35.378v35.539h139.052V415.38c0-11.599-51.114-35.378-51.114-35.378z"/>
                    <path fill="#CCE7F6" d="M305.691 409.693l-15.225-7.542v-29.845l15.225 7.542z"/>
                    <path stroke="#150F49" stroke-width="8" d="M305.691 409.693l-15.225-7.542v-29.845l15.225 7.542z"/>
                    <path fill="#CCE7F6" d="M251.391 409.693l15.226-7.542v-29.845l-15.226 7.542z"/>
                    <path stroke="#150F49" stroke-width="8" d="M251.391 409.693l15.226-7.542v-29.845l-15.226 7.542z"/>
                    <path fill="#FADED2" d="M224.517 301.465c0 7.592-6.16 13.746-13.759 13.746S197 309.057 197 301.465c0-7.59 6.16-13.745 13.758-13.745 7.598 0 13.759 6.155 13.759 13.745"/>
                    <path stroke="#150F49" stroke-width="8" d="M224.517 301.465c0 7.592-6.16 13.746-13.759 13.746S197 309.057 197 301.465c0-7.59 6.16-13.745 13.758-13.745 7.598 0 13.759 6.155 13.759 13.745z"/>
                    <path fill="#FADED2" d="M361 301.465c0 7.592-6.16 13.746-13.758 13.746-7.6 0-13.759-6.154-13.759-13.746 0-7.59 6.16-13.745 13.759-13.745 7.598 0 13.758 6.155 13.758 13.745"/>
                    <path stroke="#150F49" stroke-width="8" d="M361 301.465c0 7.592-6.16 13.746-13.758 13.746-7.6 0-13.759-6.154-13.759-13.746 0-7.59 6.16-13.745 13.759-13.745 7.598 0 13.758 6.155 13.758 13.745z"/>
                    <path fill="#FADED2" d="M284.136 378.988h-10.272c-32.287 0-63.106-34.088-63.106-66.343v-86.137c0-32.255 29.718-37.753 62.005-37.753h12.474c32.286 0 62.004 5.498 62.004 37.753v86.137c0 32.255-30.819 66.343-63.105 66.343"/>
                    <path stroke="#150F49" stroke-width="8" d="M284.136 378.988h-10.272c-32.287 0-63.106-34.088-63.106-66.343v-86.137c0-32.255 29.718-37.753 62.005-37.753h12.474c32.286 0 62.004 5.498 62.004 37.753v86.137c0 32.255-30.819 66.343-63.105 66.343z"/>
                </g>
                <g transform="translate(210.208 188.113)">
                    <mask id="r" fill="#fff">
                        <use xlink:href="#q"/>
                    </mask>
                    <path fill="#EFCBBC" d="M137.034 136.719V99.332a6.05 6.05 0 0 0-6.054-6.048 6.05 6.05 0 0 0-6.054 6.048v37.387H99.897c-7.193-9.027-18.447-14.845-31.105-14.845-12.658 0-23.912 5.818-31.105 14.845h-25.03V99.332a6.05 6.05 0 0 0-6.053-6.048A6.05 6.05 0 0 0 .55 99.332v37.387h-14.17v74.774h164.825v-74.774h-14.171z" mask="url(#r)"/>
                </g>
                <g>
                    <path stroke="#150F49" stroke-width="8" d="M284.136 378.988h-10.272c-32.287 0-63.106-34.088-63.106-66.343v-86.137c0-32.255 29.718-37.753 62.005-37.753h12.474c32.286 0 62.004 5.498 62.004 37.753v86.137c0 32.255-30.819 66.343-63.105 66.343z"/>
                    <path stroke="#FEA09D" stroke-linecap="round" stroke-width="18" d="M279 311.912v-35.738"/>
                    <path fill="#150F49" d="M259.188 283.872c0 4.25-3.45 7.697-7.705 7.697s-7.704-3.446-7.704-7.697c0-4.252 3.45-7.698 7.704-7.698 4.256 0 7.705 3.446 7.705 7.698M314.222 283.872c0 4.25-3.45 7.697-7.705 7.697s-7.705-3.446-7.705-7.697c0-4.252 3.45-7.698 7.705-7.698s7.705 3.446 7.705 7.698"/>
                    <path fill="#3D3B36" d="M318.759 190.552l3.106-12.261-19.897 2.07 3.946-15.047s-26.044.956-47.133 16.82l-4.834-10.53s-38.708 10.19-42.737 29.297c0 0-.452 7.107-.452 70.21 0 0 .548-39.747 17.462-48.288 2.872-1.451 6.213-1.633 9.308-.746 9.67 2.773 32.673 4.45 42.948 4.45 10.167 0 32.8-1.643 42.641-4.364 3.183-.88 6.628-.662 9.49.986 16.008 9.208 14.604 47.962 14.604 47.962 0-83.92.03-80.56-28.452-80.56"/>
                    <path stroke="#150F49" stroke-width="8" d="M318.759 190.552l3.106-12.261-19.897 2.07 3.946-15.047s-26.044.956-47.133 16.82l-4.834-10.53s-38.708 10.19-42.737 29.297c0 0-.452 7.107-.452 70.21 0 0 .548-39.747 17.462-48.288 2.872-1.451 6.213-1.633 9.308-.746 9.67 2.773 32.673 4.45 42.948 4.45 10.167 0 32.8-1.643 42.641-4.364 3.183-.88 6.628-.662 9.49.986 16.008 9.208 14.604 47.962 14.604 47.962 0-83.92.03-80.56-28.452-80.56z"/>
                    <path fill="#3D3B36" d="M263.041 272.507h-25.315c-2.421 0-4.403-1.98-4.403-4.398v-7.698c0-2.419 1.982-4.398 4.403-4.398h25.315c2.422 0 4.403 1.98 4.403 4.398v7.698c0 2.419-1.981 4.398-4.403 4.398"/>
                    <path stroke="#150F49" stroke-width="8" d="M263.041 272.507h-25.315c-2.421 0-4.403-1.98-4.403-4.398v-7.698c0-2.419 1.982-4.398 4.403-4.398h25.315c2.422 0 4.403 1.98 4.403 4.398v7.698c0 2.419-1.981 4.398-4.403 4.398z"/>
                    <path fill="#3D3B36" d="M319.176 272.507H293.86c-2.421 0-4.402-1.98-4.402-4.398v-7.698c0-2.419 1.98-4.398 4.402-4.398h25.316c2.421 0 4.402 1.98 4.402 4.398v7.698c0 2.419-1.98 4.398-4.402 4.398"/>
                    <path stroke="#150F49" stroke-width="8" d="M319.176 272.507H293.86c-2.421 0-4.402-1.98-4.402-4.398v-7.698c0-2.419 1.98-4.398 4.402-4.398h25.316c2.421 0 4.402 1.98 4.402 4.398v7.698c0 2.419-1.98 4.398-4.402 4.398z"/>
                    <path stroke="#150F49" stroke-width="8" d="M344.471 266.092s.917 35.56-25.361 35.56c-24.948 0-33.525-6.97-33.525-31.345l58.886-4.215zM212.43 266.092s-.916 35.56 25.362 35.56c24.948 0 33.524-6.97 33.524-31.345l-58.886-4.215z"/>
                    <path stroke="#150F49" stroke-linecap="round" stroke-width="8" d="M296.158 331.913c-3.427 3.253-9.828 5.44-17.159 5.44-7.33 0-13.73-2.187-17.157-5.438M285.633 349.934c-1.324.407-3.8.68-6.633.68-2.834 0-5.309-.273-6.633-.68"/>
                    <path stroke="#150F49" stroke-width="8" d="M272.948 270.577h11.006"/>
                </g>
            </g>
            <g>
                <g transform="translate(3 -102)">
                    <circle cx="120" cy="120" r="87" fill="url(#s)" transform="rotate(-59 120 120)"/>
                    <ellipse cx="118.346" cy="158" fill="url(#t)" rx="16" ry="25" transform="rotate(-114 118.346 158)"/>
                    <ellipse cx="145.227" cy="179.655" fill="url(#t)" rx="10" ry="15.5" transform="rotate(-114 145.227 179.655)"/>
                </g>
                <g stroke="#FFF" stroke-linecap="round" stroke-width="4">
                    <path d="M214.596 106.39l-8.485-8.486M205.904 106.89l8.485-8.486"/>
                </g>
                <g stroke="#FFF" stroke-linecap="round" stroke-width="4">
                    <path d="M327.596 62.39l-8.485-8.486M318.904 62.89l8.485-8.486"/>
                </g>
                <g stroke="#FFF" stroke-linecap="round" stroke-width="4">
                    <path d="M285.425 144.925h-12M279.632 151.425v-12"/>
                </g>
            </g>
        </g>
        <path fill="#FFF" d="M92 127a4 4 0 1 1-8 0 4 4 0 0 1 8 0M274 20a4 4 0 1 1-8 0 4 4 0 0 1 8 0M401 127a4 4 0 1 1-8 0 4 4 0 0 1 8 0" mask="url(#c)"/>
    </g>
</svg>
