<?xml version="1.0" encoding="utf-8"?>
<!-- Generator: Adobe Illustrator 22.0.1, SVG Export Plug-In . SVG Version: 6.00 Build 0)  -->
<svg version="1.0" id="Capa_1" xmlns="http://www.w3.org/2000/svg" xmlns:xlink="http://www.w3.org/1999/xlink" x="0px" y="0px"
	 width="277px" height="173px" viewBox="0 0 277 173" style="enable-background:new 0 0 277 173;" xml:space="preserve">
<style type="text/css">
	.st0{fill:#DAE9F7;}
	.st1{fill:#F4F6FF;}
	.st2{display:none;}
	.st3{display:inline;}
	.st4{fill:#4A48BC;}
	.st5{fill:#00A0E3;}
	.st6{fill:#FFFFFF;}
	
		.st7{fill:none;stroke:#2E2682;stroke-width:1.92;stroke-linecap:round;stroke-linejoin:round;stroke-dasharray:24,4.8,0,4.8,14.4,0;}
	
		.st8{fill:none;stroke:#047DD9;stroke-width:1.92;stroke-linecap:round;stroke-linejoin:round;stroke-dasharray:102.72,0,146.88,5.76,0;}
	
		.st9{fill:none;stroke:#484964;stroke-width:1.92;stroke-linecap:round;stroke-linejoin:round;stroke-dasharray:109.44,0,45.12,4.8,0,4.8;}
	
		.st10{fill:none;stroke:#484964;stroke-width:1.92;stroke-linecap:round;stroke-linejoin:round;stroke-dasharray:110.4,0,26.88,6.72,0,6.72;}
	
		.st11{fill:none;stroke:#2E2682;stroke-width:1.92;stroke-linecap:round;stroke-linejoin:round;stroke-dasharray:60.48,0,26.88,6.72,0,6.72;}
	
		.st12{fill:none;stroke:#2E2682;stroke-width:1.92;stroke-linecap:round;stroke-linejoin:round;stroke-dasharray:18.24,0,45.12,4.8,0,4.8;}
</style>
<g id="Fondo">
	<path class="st0" d="M75,138.8h11.5c3.2,0,5.8,2.6,5.8,5.7s-2.6,5.7-5.8,5.7H75l0,0l0,0c-3.2,0-5.8-2.6-5.8-5.7
		C69.2,141.3,71.8,138.8,75,138.8L75,138.8 M190.4,161.6c0.3,0,0.6,0,0.8,0.1h9.8c0.3,0,0.6-0.1,0.8-0.1c3.2,0,5.8,2.6,5.8,5.7
		s-2.6,5.7-5.8,5.7v0.1h-11.5V173c-3.2,0-5.8-2.6-5.8-5.7C184.7,164.1,187.3,161.6,190.4,161.6 M271.2,70.6c-3.2,0-5.8-2.6-5.8-5.7
		l0,0c0-3.2,2.6-5.7,5.8-5.7l0,0c3.2,0,5.8,2.6,5.8,5.7C277,68,274.4,70.6,271.2,70.6 M46.2,30.7c0,3-2.3,5.4-5.3,5.6l0,0h-12
		c-3.2,0-5.8-2.6-5.8-5.7l0,0c0-3.2,2.6-5.7,5.8-5.7l0,0h12l0,0C43.8,25.3,46.2,27.7,46.2,30.7"/>
	<g>
		<path class="st1" d="M259.7,93.3H202c-3.2,0-5.8-2.6-5.8-5.7c0-3.2,2.6-5.7,5.8-5.7l0,0h46.2c3.2,0,5.8-2.6,5.8-5.7
			c0-3.2-2.6-5.7-5.8-5.7H202c-3.2,0-5.8-2.6-5.8-5.7c0-3.2,2.6-5.7,5.8-5.7s5.8-2.6,5.8-5.7s-2.6-5.7-5.8-5.7h-11.5
			c-3.2,0-5.8-2.6-5.8-5.7s2.6-5.7,5.8-5.7h46.2c3.2,0,5.8-2.6,5.8-5.7s-2.6-5.7-5.8-5.7H179c-3.2,0-5.8-2.6-5.8-5.7
			s2.6-5.7,5.8-5.7h11.5c3.2,0,5.8-2.6,5.8-5.7s-2.6-5.7-5.8-5.7h-80.8c-3.2,0-5.8,2.6-5.8,5.7s2.6,5.7,5.8,5.7h11.5
			c3.2,0,5.8,2.6,5.8,5.7s-2.6,5.7-5.8,5.7H75c-3.2,0-5.8,2.6-5.8,5.7S71.8,36,75,36h23.1c3.2,0,5.8,2.6,5.8,5.7s-2.6,5.7-5.8,5.7
			H86.6c-3.2,0-5.8,2.6-5.8,5.7s2.6,5.7,5.8,5.7c3.2,0,5.8,2.6,5.8,5.7c0,3.2-2.6,5.7-5.8,5.7H40c-3.2,0-5.8,2.6-5.8,5.7l0,0
			c0,3.2,2.6,5.7,5.8,5.7h23.5c3.2,0,5.8,2.6,5.8,5.7c0,3.2-2.6,5.7-5.8,5.7H5.8C2.6,93.3,0,95.8,0,99c0,3.2,2.6,5.7,5.8,5.7H75
			c3.2,0,5.8,2.6,5.8,5.7l0,0c0,3.2-2.6,5.7-5.8,5.7H51.9c-3.2,0-5.8,2.6-5.8,5.7c0,3.2,2.6,5.7,5.8,5.7h69.3c3.2,0,5.8,2.6,5.8,5.7
			s-2.6,5.7-5.8,5.7h-11.5c-3.2,0-5.8,2.6-5.8,5.7s2.6,5.7,5.8,5.7h23.1c3.2,0,5.8,2.6,5.8,5.7s-2.6,5.7-5.8,5.7h-11.5
			c-3.2,0-5.8,2.6-5.8,5.7s2.6,5.7,5.8,5.7h46.2c3.2,0,5.8-2.6,5.8-5.7s-2.6-5.7-5.8-5.7l0,0h-11.6c-3.2,0-5.8-2.6-5.8-5.7
			s2.6-5.7,5.8-5.7h92.3c3.2,0,5.8-2.6,5.8-5.7s-2.6-5.7-5.8-5.7H202c-3.2,0-5.8-2.6-5.8-5.7l0,0c0-3.2,2.6-5.7,5.8-5.7h23.1
			c3.2,0,5.8-2.6,5.8-5.7c0-3.2-2.6-5.7-5.8-5.7h-11.5c-3.2,0-5.8-2.6-5.8-5.7l0,0c0-3.2,2.6-5.7,5.8-5.7h46.2
			c3.2,0,5.8-2.6,5.8-5.7C265.5,95.8,262.9,93.3,259.7,93.3"/>
	</g>
</g>
<g id="Capa_1_1_" class="st2">
	<g class="st3">
		<path class="st4" d="M196.5,82.5l-6.1,38.1l-22.5-10.9L69.2,38.1L196.5,82.5z"/>
		<path class="st5" d="M182.1,99.1l7.3,20.5l-22.5-10.9l7.9-13.4L182.1,99.1z"/>
		<path class="st6" d="M196.5,82.5l-6.1,38.1"/>
		<path class="st7" d="M196.5,82.5l-6.1,38.1"/>
		<path class="st8" d="M190.4,120.6l-7.3-20.5l-11.4,11L190.4,120.6z"/>
		<path class="st6" d="M61.6,35.4l82.8,101.9l38.7-37.2"/>
		<path class="st9" d="M61.6,35.4l82.8,101.9l38.7-37.2"/>
		<path class="st6" d="M61.6,35.4l153.9,22.1l-18.9,25"/>
		<path class="st10" d="M61.6,35.4l153.9,22.1l-18.9,25"/>
		<path class="st6" d="M196.5,82.5l-135-47.1"/>
		<path class="st11" d="M196.5,82.5l-135-47.1"/>
		<g>
			<path class="st6" d="M183,100.1L61.6,35.4"/>
			<path class="st12" d="M183,100.1L61.6,35.4"/>
		</g>
		<g>
			<path class="st6" d="M61.6,35.4l77.9,11.2"/>
			<path class="st10" d="M61.6,35.4l77.9,11.2"/>
		</g>
		<g>
			<path class="st6" d="M61.6,35.4l82.8,101.9"/>
			<path class="st9" d="M61.6,35.4l82.8,101.9"/>
		</g>
	</g>
</g>
</svg>
