<?xml version="1.0" encoding="utf-8"?>
<!-- Generator: Adobe Illustrator 22.0.1, SVG Export Plug-In . SVG Version: 6.00 Build 0)  -->
<svg version="1.0" id="Capa_1" xmlns="http://www.w3.org/2000/svg" xmlns:xlink="http://www.w3.org/1999/xlink" x="0px" y="0px"
	 width="278px" height="173px" viewBox="0 0 278 173" style="enable-background:new 0 0 278 173;" xml:space="preserve">
<style type="text/css">
	.st0{display:none;fill:#DAE9F7;}
	.st1{filter:url(#Adobe_OpacityMaskFilter);}
	.st2{fill:#FFFFFF;}
	.st3{mask:url(#b_1_);fill:#F4F6FF;}
	
		.st4{fill:none;stroke:#484964;stroke-width:1.92;stroke-linecap:round;stroke-linejoin:round;stroke-dasharray:110.4,0,26.88,6.72,0,6.72;}
	
		.st5{display:none;fill:none;stroke:#047DD9;stroke-width:1.92;stroke-linecap:round;stroke-linejoin:round;stroke-dasharray:109.44,0,31.68,3.84,0,4.8;}
	
		.st6{fill:none;stroke:#484964;stroke-width:1.92;stroke-linecap:round;stroke-linejoin:round;stroke-dasharray:105.6,0,342.72,4.8,0,4.8;}
	
		.st7{fill:none;stroke:#484964;stroke-width:1.92;stroke-linecap:round;stroke-linejoin:round;stroke-dasharray:105.6,0,342.72,3.84,0,4.8;}
	.st8{display:none;}
	.st9{display:inline;}
	.st10{filter:url(#Adobe_OpacityMaskFilter_1_);}
	.st11{mask:url(#d_1_);fill:#FFFFFF;}
	.st12{filter:url(#Adobe_OpacityMaskFilter_2_);}
	.st13{mask:url(#f_1_);fill:#FFFFFF;}
	.st14{filter:url(#Adobe_OpacityMaskFilter_3_);}
	
		.st15{mask:url(#h_1_);fill:none;stroke:#047DD9;stroke-width:1.92;stroke-linecap:round;stroke-linejoin:round;stroke-dasharray:105.6,0,342.72,4.8,0,4.8;}
	.st16{filter:url(#Adobe_OpacityMaskFilter_4_);}
	.st17{mask:url(#j_1_);fill:#4A48BC;}
	.st18{filter:url(#Adobe_OpacityMaskFilter_5_);}
	
		.st19{mask:url(#l_1_);fill:none;stroke:#2E2682;stroke-width:1.92;stroke-linecap:round;stroke-linejoin:round;stroke-dasharray:28.8,0,298.56,4.8,0,4.8;}
	
		.st20{display:inline;fill:none;stroke:#2E2682;stroke-width:1.92;stroke-linecap:round;stroke-linejoin:round;stroke-dasharray:109.44,0,45.12,3.84,0,4.8;}
	.st21{display:inline;fill:#00A0E3;}
	
		.st22{display:inline;fill:none;stroke:#047DD9;stroke-width:1.92;stroke-linecap:round;stroke-linejoin:round;stroke-dasharray:57.6,0,0,4.8,0,4.8;}
	
		.st23{display:inline;fill:none;stroke:#047DD9;stroke-width:1.92;stroke-linecap:round;stroke-linejoin:round;stroke-dasharray:96,0,145.92,5.76,0,4.8;}
	.st24{opacity:0.56;}
	.st25{font-family:'MyriadPro-Regular';}
	.st26{font-size:15.9265px;}
	.st27{opacity:0.57;}
</style>
<path class="st0" d="M202.1,34.7h-11.6c-3.2,0-5.8-2.6-5.8-5.8c0-3.2,2.6-5.8,5.8-5.8h11.6c3.2,0,5.8,2.6,5.8,5.8
	C207.9,32.1,205.3,34.7,202.1,34.7 M86.6,11.6c-0.3,0-0.6,0-0.8-0.1h-9.8c-0.3,0-0.6,0.1-0.8,0.1c-3.2,0-5.8-2.6-5.8-5.8
	c0-3.2,2.6-5.8,5.8-5.8V0h11.5v0.1c3.2,0,5.8,2.6,5.8,5.8c0,0,0,0,0,0C92.4,9,89.8,11.6,86.6,11.6 M5.8,103.8c3.2,0,5.8,2.6,5.8,5.8
	l0,0c0,3.2-2.6,5.8-5.8,5.8c-3.2,0-5.8-2.6-5.8-5.8c0,0,0,0,0,0C0,106.4,2.6,103.8,5.8,103.8C5.8,103.8,5.8,103.8,5.8,103.8
	 M231,144.2c0-3,2.4-5.5,5.3-5.7v0h12c3.2,0,5.8,2.6,5.8,5.8c0,3.2-2.6,5.8-5.8,5.8h-12v0C233.4,149.7,231,147.2,231,144.2"/>
<g transform="translate(11.55)">
	<defs>
		<filter id="Adobe_OpacityMaskFilter" filterUnits="userSpaceOnUse" x="0" y="0.1" width="265.6" height="172.9">
			<feColorMatrix  type="matrix" values="1 0 0 0 0  0 1 0 0 0  0 0 1 0 0  0 0 0 1 0"/>
		</filter>
	</defs>
	<mask maskUnits="userSpaceOnUse" x="0" y="0.1" width="265.6" height="172.9" id="b_1_">
		<g class="st1">
			<path id="a_1_" class="st2" d="M265.6,0.1V173H0V0.1L265.6,0.1z"/>
		</g>
	</mask>
	<path class="st3" d="M5.8,80.8h57.8c3.2,0,5.8,2.6,5.8,5.8c0,3.2-2.6,5.8-5.8,5.8H17.3c-3.2,0-5.8,2.6-5.8,5.8
		c0,3.2,2.6,5.8,5.8,5.8c0,0,0,0,0,0h46.2c3.2,0,5.8,2.6,5.8,5.8c0,0,0,0,0,0c0,3.2-2.6,5.8-5.8,5.8c0,0,0,0,0,0
		c-3.2,0-5.8,2.6-5.8,5.8c0,0,0,0,0,0c0,3.2,2.6,5.8,5.8,5.8c0,0,0,0,0,0h11.6c3.2,0,5.8,2.6,5.8,5.8c0,0,0,0,0,0
		c0,3.2-2.6,5.8-5.8,5.8H28.9c-3.2,0-5.8,2.6-5.8,5.8c0,0,0,0,0,0c0,3.2,2.6,5.8,5.8,5.8c0,0,0,0,0,0h57.8c3.2,0,5.8,2.6,5.8,5.8
		c0,3.2-2.6,5.8-5.8,5.8H75.1c-3.2,0-5.8,2.6-5.8,5.8c0,3.2,2.6,5.8,5.8,5.8h80.8c3.2,0,5.8-2.6,5.8-5.8c0-3.2-2.6-5.8-5.8-5.8
		h-11.6c-3.2,0-5.8-2.6-5.8-5.8c0-3.2,2.6-5.8,5.8-5.8h46.2c3.2,0,5.8-2.6,5.8-5.8c0-3.2-2.6-5.8-5.8-5.8h-23.1
		c-3.2,0-5.8-2.6-5.8-5.8c0-3.2,2.6-5.8,5.8-5.8l0,0H179c3.2,0,5.8-2.6,5.8-5.8c0-3.2-2.6-5.8-5.8-5.8c-3.2,0-5.8-2.6-5.8-5.8l0,0
		c0-3.2,2.6-5.8,5.8-5.8h46.6c3.2,0,5.8-2.6,5.8-5.8c0-3.2-2.6-5.8-5.8-5.8h-23.5c-3.2,0-5.8-2.6-5.8-5.8c0-3.2,2.6-5.8,5.8-5.8
		h57.8c3.2,0,5.8-2.6,5.8-5.8c0-3.2-2.6-5.8-5.8-5.8h-69.3c-3.2,0-5.8-2.6-5.8-5.8c0-3.2,2.6-5.8,5.8-5.8h23.1
		c3.2,0,5.8-2.6,5.8-5.8c0-3.2-2.6-5.8-5.8-5.8h-69.3c-3.2,0-5.8-2.6-5.8-5.8c0-3.2,2.6-5.8,5.8-5.8l0,0h11.6c3.2,0,5.8-2.6,5.8-5.8
		c0-3.2-2.6-5.8-5.8-5.8h-23.1c-3.2,0-5.8-2.6-5.8-5.8c0-3.2,2.6-5.8,5.8-5.8l0,0h11.5c3.2,0,5.8-2.6,5.8-5.8c0,0,0,0,0,0
		c0-3.2-2.6-5.8-5.8-5.8H98.1c-3.2,0-5.8,2.6-5.8,5.8c0,3.2,2.6,5.8,5.8,5.8c0,0,0,0,0,0h11.6c3.2,0,5.8,2.6,5.8,5.8c0,0,0,0,0,0
		c0,3.2-2.6,5.8-5.8,5.8H17.3c-3.2,0-5.8,2.6-5.8,5.8c0,0,0,0,0,0c0,3.2,2.6,5.8,5.8,5.8c0,0,0,0,0,0h46.2c3.2,0,5.8,2.6,5.8,5.8
		c0,3.2-2.6,5.8-5.8,5.8h0H40.4c-3.2,0-5.8,2.6-5.8,5.8v0c0,3.2,2.6,5.8,5.8,5.8H52c3.2,0,5.8,2.6,5.8,5.8c0,3.2-2.6,5.8-5.8,5.8
		H5.8C2.6,69.2,0,71.8,0,75C0,78.2,2.6,80.8,5.8,80.8C5.8,80.8,5.8,80.8,5.8,80.8"/>
</g>
<path class="st2" d="M200,38l-0.1,96.5c0,1.1-0.9,1.9-1.9,1.9l-130-0.1c-1.1,0-1.9-0.9-1.9-1.9l0.1-96.5c0-1.1,0.9-1.9,1.9-1.9
	l130,0.1C199.1,36.1,200,36.9,200,38"/>
<path class="st2" d="M71,120.7l0.1-79.2l122,0.1l-0.1,79.2L71,120.7z"/>
<path class="st2" d="M72,121.7L72,42.5l122,0.1l-0.1,79.2L72,121.7z"/>
<path class="st4" d="M72,121.7L72,42.5l122,0.1l-0.1,79.2L72,121.7z"/>
<path class="st5" d="M174.6,85.9l11.3,11.2"/>
<path class="st6" d="M200,38l-0.1,96.5c0,1.1-0.9,1.9-1.9,1.9l-130-0.1c-1.1,0-1.9-0.9-1.9-1.9l0.1-96.5c0-1.1,0.9-1.9,1.9-1.9
	l130,0.1C199.1,36.1,200,36.9,200,38L200,38z"/>
<path class="st7" d="M141.9,136.3l-16.7,0c0,4.4-1.1,16.2-1.1,16.2l18.6,0C142.6,152.5,141.9,140.8,141.9,136.3z M114.1,152.5h38.5"
	/>
<g class="st8">
	<g transform="translate(112.612 28.833)" class="st9">
		<defs>
			<filter id="Adobe_OpacityMaskFilter_1_" filterUnits="userSpaceOnUse" x="-45.4" y="0.8" width="150.2" height="112.6">
				<feColorMatrix  type="matrix" values="1 0 0 0 0  0 1 0 0 0  0 0 1 0 0  0 0 0 1 0"/>
			</filter>
		</defs>
		<mask maskUnits="userSpaceOnUse" x="-45.4" y="0.8" width="150.2" height="112.6" id="d_1_">
			<g class="st10">
				<path id="c_1_" class="st2" d="M18.5,0.8c-10.9,6-18.4,17.7-18.4,31c0,19.6,15.9,35.4,35.5,35.4c19.6,0,35.5-15.9,35.5-35.4
					c0-13.4-7.4-25-18.3-31C52.8,0.8,18.5,0.8,18.5,0.8z"/>
			</g>
		</mask>
		<path class="st11" d="M104.8,2.9l-0.1,108.7c0,1.1-0.9,1.9-1.9,1.9l-146.3-0.1c-1.1,0-1.9-0.9-1.9-1.9l0.1-108.7
			c0-1.1,0.9-1.9,1.9-1.9l146.3,0.1C103.9,0.9,104.8,1.8,104.8,2.9"/>
	</g>
	<g transform="translate(112.612 35.561)" class="st9">
		<defs>
			<filter id="Adobe_OpacityMaskFilter_2_" filterUnits="userSpaceOnUse" x="-39.8" y="0.4" width="136.9" height="88.9">
				<feColorMatrix  type="matrix" values="1 0 0 0 0  0 1 0 0 0  0 0 1 0 0  0 0 0 1 0"/>
			</filter>
		</defs>
		<mask maskUnits="userSpaceOnUse" x="-39.8" y="0.4" width="136.9" height="88.9" id="f_1_">
			<g class="st12">
				<path id="e_1_" class="st2" d="M61,0.4c6.2,6.4,10.1,15.1,10.1,24.7c0,19.6-15.9,35.4-35.5,35.4c-19.6,0-35.5-15.9-35.5-35.4
					C0.2,15.5,4,6.8,10.2,0.4H61z"/>
			</g>
		</mask>
		<path class="st13" d="M-39.8,89.2l0.1-88.8L97,0.5L97,89.3L-39.8,89.2z"/>
	</g>
	<g transform="translate(112.612 28.833)" class="st9">
		<defs>
			<filter id="Adobe_OpacityMaskFilter_3_" filterUnits="userSpaceOnUse" x="-46.4" y="-0.1" width="152.1" height="114.5">
				<feColorMatrix  type="matrix" values="1 0 0 0 0  0 1 0 0 0  0 0 1 0 0  0 0 0 1 0"/>
			</filter>
		</defs>
		<mask maskUnits="userSpaceOnUse" x="-46.4" y="-0.1" width="152.1" height="114.5" id="h_1_">
			<g class="st14">
				<path id="g_1_" class="st2" d="M52.8,0.8c10.9,6,18.4,17.7,18.4,31c0,19.6-15.9,35.4-35.5,35.4c-19.6,0-35.5-15.9-35.5-35.4
					c0-13.4,7.4-25,18.4-31C18.5,0.8,52.8,0.8,52.8,0.8z"/>
			</g>
		</mask>
		<path class="st15" d="M104.8,2.9l-0.1,108.7c0,1.1-0.9,1.9-1.9,1.9l-146.3-0.1c-1.1,0-1.9-0.9-1.9-1.9l0.1-108.7
			c0-1.1,0.9-1.9,1.9-1.9l146.3,0.1C103.9,0.9,104.8,1.8,104.8,2.9z"/>
	</g>
	<g transform="translate(112.612 36.522)" class="st9">
		<defs>
			<filter id="Adobe_OpacityMaskFilter_4_" filterUnits="userSpaceOnUse" x="-38.7" y="0.5" width="136.9" height="88.9">
				<feColorMatrix  type="matrix" values="1 0 0 0 0  0 1 0 0 0  0 0 1 0 0  0 0 0 1 0"/>
			</filter>
		</defs>
		<mask maskUnits="userSpaceOnUse" x="-38.7" y="0.5" width="136.9" height="88.9" id="j_1_">
			<g class="st16">
				<path id="i_1_" class="st2" d="M62,0.5c5.6,6.3,9.1,14.6,9.1,23.6c0,19.6-15.9,35.4-35.5,35.4c-19.6,0-35.5-15.9-35.5-35.4
					c0-9.1,3.4-17.4,9.1-23.6H62z"/>
			</g>
		</mask>
		<path class="st17" d="M-38.7,89.3l0.1-88.8L98.1,0.6l-0.1,88.8L-38.7,89.3z"/>
	</g>
	<g transform="translate(112.612 36.522)" class="st9">
		<defs>
			<filter id="Adobe_OpacityMaskFilter_5_" filterUnits="userSpaceOnUse" x="-39.7" y="-0.4" width="138.8" height="90.8">
				<feColorMatrix  type="matrix" values="1 0 0 0 0  0 1 0 0 0  0 0 1 0 0  0 0 0 1 0"/>
			</filter>
		</defs>
		<mask maskUnits="userSpaceOnUse" x="-39.7" y="-0.4" width="138.8" height="90.8" id="l_1_">
			<g class="st18">
				<path id="k_1_" class="st2" d="M62,0.5c5.6,6.3,9.1,14.6,9.1,23.6c0,19.6-15.9,35.4-35.5,35.4c-19.6,0-35.5-15.9-35.5-35.4
					c0-9.1,3.4-17.4,9.1-23.6H62z"/>
			</g>
		</mask>
		<path class="st19" d="M-38.7,89.3l0.1-88.8L98.1,0.6l-0.1,88.8L-38.7,89.3z"/>
	</g>
</g>
<g class="st8">
	<path class="st20" d="M183.7,60.7c0,19.6-15.9,35.4-35.5,35.4c-19.6,0-35.5-15.9-35.5-35.4c0-19.6,15.9-35.4,35.5-35.4
		C167.8,25.3,183.7,41.1,183.7,60.7z"/>
	<path class="st21" d="M203,122.3l-21.5-21.4c-2.5-2.5,5.2-10.1,7.7-7.7l21.5,21.4C213.1,117.1,205.5,124.8,203,122.3"/>
	<path class="st22" d="M203,122.3l-21.5-21.4c-2.5-2.5,5.2-10.1,7.7-7.7l21.5,21.4C213.1,117.1,205.5,124.8,203,122.3z"/>
	<path class="st23" d="M110,73.8c-7.3-21.1,4-44.1,25.1-51.4c21.1-7.3,44.2,4,51.4,25.1c7.3,21.1-4,44.1-25.1,51.4
		C140.3,106.2,117.2,94.9,110,73.8z"/>
</g>
<text transform="matrix(1 0 0 1 122.3327 67.2868)" class="st24 st25 st26">2 | 5 | 30</text>
<text transform="matrix(1 0 0 1 81.666 108.6201)" class="st27 st25 st26">100 % 15 | A</text>
</svg>
