<?xml version="1.0" encoding="utf-8"?>
<!-- Generator: Adobe Illustrator 22.0.1, SVG Export Plug-In . SVG Version: 6.00 Build 0)  -->
<svg version="1.0" id="Logo" xmlns="http://www.w3.org/2000/svg" xmlns:xlink="http://www.w3.org/1999/xlink" x="0px" y="0px"
	 width="277px" height="173px" viewBox="0 0 277 173" style="enable-background:new 0 0 277 173;" xml:space="preserve">
<style type="text/css">
	.st0{opacity:0.63;}
	.st1{fill:#DAE9F7;}
	.st2{fill:#F4F6FF;}
	.st3{display:none;}
	.st4{display:inline;fill:#0E2372;}
	.st5{fill:#0E2372;}
</style>
<g id="Fondo" class="st0">
	<path class="st1" d="M75,138.8h11.5c3.2,0,5.8,2.6,5.8,5.7s-2.6,5.7-5.8,5.7H75l0,0l0,0c-3.2,0-5.8-2.6-5.8-5.7
		C69.2,141.4,71.8,138.8,75,138.8L75,138.8 M190.4,161.6c0.3,0,0.6,0,0.8,0.1h9.8c0.3,0,0.6-0.1,0.8-0.1c3.2,0,5.8,2.6,5.8,5.7
		c0,3.2-2.6,5.7-5.8,5.7v0.1h-11.5V173c-3.2,0-5.8-2.6-5.8-5.7C184.7,164.1,187.3,161.6,190.4,161.6 M271.2,70.8
		c-3.2,0-5.8-2.6-5.8-5.7l0,0c0-3.2,2.6-5.7,5.8-5.7l0,0c3.2,0,5.8,2.6,5.8,5.7C277,68.2,274.4,70.8,271.2,70.8 M46.2,31
		c0,3-2.3,5.4-5.3,5.6l0,0h-12c-3.2,0-5.8-2.6-5.8-5.7l0,0c0-3.2,2.6-5.7,5.8-5.7l0,0h12l0,0C43.8,25.5,46.2,28,46.2,31"/>
	<g>
		<path class="st2" d="M259.7,93.4H202c-3.2,0-5.8-2.6-5.8-5.7c0-3.2,2.6-5.7,5.8-5.7l0,0h46.2c3.2,0,5.8-2.6,5.8-5.7
			c0-3.2-2.6-5.7-5.8-5.7H202c-3.2,0-5.8-2.6-5.8-5.7s2.6-5.7,5.8-5.7s5.8-2.6,5.8-5.7s-2.6-5.7-5.8-5.7h-11.5
			c-3.2,0-5.8-2.6-5.8-5.7s2.6-5.7,5.8-5.7h46.2c3.2,0,5.8-2.6,5.8-5.7s-2.6-5.7-5.8-5.7H179c-3.2,0-5.8-2.6-5.8-5.7
			s2.6-5.7,5.8-5.7h11.5c3.2,0,5.8-2.6,5.8-5.7S193.7,2,190.5,2h-80.8c-3.2,0-5.8,2.6-5.8,5.7s2.6,5.7,5.8,5.7h11.5
			c3.2,0,5.8,2.6,5.8,5.7s-2.6,5.7-5.8,5.7H75c-3.2,0-5.8,2.6-5.8,5.7c0,3.2,2.6,5.7,5.8,5.7h23.1c3.2,0,5.8,2.6,5.8,5.7
			s-2.6,5.7-5.8,5.7H86.6c-3.2,0-5.8,2.6-5.8,5.7s2.6,5.7,5.8,5.7c3.2,0,5.8,2.6,5.8,5.7s-2.6,5.7-5.8,5.7H40
			c-3.2,0-5.8,2.6-5.8,5.7l0,0c0,3.2,2.6,5.7,5.8,5.7h23.5c3.2,0,5.8,2.6,5.8,5.7s-2.6,5.7-5.8,5.7H5.8C2.6,93.4,0,96,0,99.1
			s2.6,5.7,5.8,5.7H75c3.2,0,5.8,2.6,5.8,5.7l0,0c0,3.2-2.6,5.7-5.8,5.7H51.9c-3.2,0-5.8,2.6-5.8,5.7c0,3.2,2.6,5.7,5.8,5.7h69.3
			c3.2,0,5.8,2.6,5.8,5.7c0,3.2-2.6,5.7-5.8,5.7h-11.5c-3.2,0-5.8,2.6-5.8,5.7s2.6,5.7,5.8,5.7h23.1c3.2,0,5.8,2.6,5.8,5.7
			c0,3.2-2.6,5.7-5.8,5.7h-11.5c-3.2,0-5.8,2.6-5.8,5.7c0,3.2,2.6,5.7,5.8,5.7h46.2c3.2,0,5.8-2.6,5.8-5.7c0-3.2-2.6-5.7-5.8-5.7
			l0,0h-11.6c-3.2,0-5.8-2.6-5.8-5.7c0-3.2,2.6-5.7,5.8-5.7h92.3c3.2,0,5.8-2.6,5.8-5.7s-2.6-5.7-5.8-5.7H202
			c-3.2,0-5.8-2.6-5.8-5.7l0,0c0-3.2,2.6-5.7,5.8-5.7h23.1c3.2,0,5.8-2.6,5.8-5.7s-2.6-5.7-5.8-5.7h-11.5c-3.2,0-5.8-2.6-5.8-5.7
			l0,0c0-3.2,2.6-5.7,5.8-5.7h46.2c3.2,0,5.8-2.6,5.8-5.7C265.5,96,262.9,93.4,259.7,93.4"/>
	</g>
</g>
<g>
	<g id="Sombras" class="st3">
		<path id="SombaX" class="st4" d="M88.4,81.3c-1.3,2.6-1.3,5.6-1.7,8.4c-0.8,6.4-0.5,12.8,0.6,19.1c0.2,0.9,0.3,1.7-0.2,2.8
			c-1.3-1.1-1.2-2.6-1.4-3.9c0.6-1.3,0-2.6-0.1-3.9c-1.9-18.5,2.8-35.1,14.7-49.4c11.2-13.6,25.8-21.3,43.2-23.2
			c7-0.8,14.1-0.5,21,1.1c0.5,0.1,1,0.4,1.5,0.1c1.4,0.1,3.8,0.4,3.6,1.1c-0.5,1.6-2.3-0.4-3.6,0.2c0,0,0,0,0,0
			c-11.6-2.6-23-2-34.4,1.3C111.3,41.5,97.5,54.9,90.1,75C89.6,77.1,88.7,79.1,88.4,81.3z"/>
		<path class="st4" d="M166.9,137.9c-9,3.1-18.1,4.1-27.5,2.3c-2-0.4-4.1-0.3-5.9-1.4c-0.1-1.2-1.1-1.4-2-1.8
			c-3.2-1.3-6.2-3-8.8-5.4c0.2,0,0.3,0,0.5,0c1-0.1,1.6,0.6,2.4,1c6,3.5,12.5,5.6,19.3,6.7c2.8,0.4,5.5,0.3,8.3,0
			c8.8-1.4,17-4.2,24-9.9c2.6-2.1,4.8-4.6,7.2-7c0.5-0.5,0.8-1.3,1.7-1.1c0.2,0,0.3,0,0.5,0c-4.6,6.2-10.3,11.1-17.3,14.5
			C168.3,136.4,167,136.5,166.9,137.9z"/>
		<path class="st4" d="M175.4,138.4c-0.4,0.6-0.9,1.2-1.3,1.8c-9.9,7-20.9,9.9-32.9,9.3c-4.1-0.2-8.2-1.1-12.2-2.2
			c0-0.1,0-0.3,0-0.4c2-0.8,3.8,0.5,5.7,0.6c13.9,2.1,26.9-0.3,38.5-8.5C173.9,138.5,174.5,137.8,175.4,138.4z"/>
		<path class="st4" d="M131.7,34.8c3.2-1.6,6.8-2,10.2-2.5c7.7-1.1,15.5-0.8,23.2,0.7c0.3,0.1,0.6,0.3,1,0.4
			c-4.6-0.3-9.2-1.4-13.8-1.4c-6.3,0.1-12.5,0.9-18.6,2.4C133,34.7,132.3,34.8,131.7,34.8z"/>
		<path class="st4" d="M88.4,81.3c0-2.3,0.8-4.3,1.8-6.3C90.1,77.2,89.1,79.2,88.4,81.3z"/>
		<path class="st4" d="M137,137c14.4,3,27.6,0.2,39.2-9c9.5-7.5,15.1-17.5,17-29.5c0.4-2.7,0.3-5.5,0.4-8.2c0-0.6-0.2-1.6,0.7-1.6
			c0.8,0,0.6,1,0.6,1.7c0.5,11.1-2.5,21.1-9,30.1c-7.7,10.4-18.1,16.4-30.7,18.7c-5.9,1.1-11.8,0.4-17.6-1.1c-0.5-0.1-1.2-0.2-1.1-1
			c0,0,0.1-0.1,0.2-0.1C136.9,137,136.9,137,137,137z"/>
		<path class="st4" d="M140.4,91.9c3.5-0.7,6.9,0.1,10.3,0.2c3.3,0.1,6.6,0.6,10,0.7c8,0.4,16,0.7,24,1.1c0.5,0,1.6-0.5,1.5,0.6
			c0,0.7-0.9,0.6-1.5,0.6c-9,0-17.9-0.5-26.9-1.3c-4.4-0.4-8.7-0.7-13.1-0.9C143.3,92.8,141.8,92.5,140.4,91.9z"/>
		<path class="st4" d="M137,137c0,1,0.9,0.8,1.4,0.9c14.6,3.2,27.7,0.1,39.4-9.1c2.4-1.9,4.6-4.2,6.5-6.6c0.5-0.6,1-1.3,1.7-1.7
			c0,0.3,0,0.6,0,0.9c-4.3,4.8-8.8,9.4-14.5,12.5c-5.7,3-11.6,5.1-18,5.8c-3,0.4-6,0.4-8.9,0c-6.7-0.7-12.8-2.9-18.6-6.3
			c-0.9-0.6-1.9-1.2-2.8-1.7c0-0.3-0.4-1,0.2-0.7C127.7,133.6,132.3,135.4,137,137z"/>
		<path class="st4" d="M166.1,32.2c-2.1,0.8-4-0.4-6-0.5c-7.3-0.6-14.5-0.7-21.7,0.7c-10.8,2.1-20.6,6.6-29,13.7
			C97.6,55.7,90.1,68.2,87,83.3c-1.2,6-1.5,12-1.3,18.1c0.1,1.8,0.4,3.5,0.6,5.3c0.1,0.6-0.1,0.8-0.6,0.9c-0.8-4.5-1.1-9-1-13.5
			c0.2-14.5,4.7-27.6,13.6-39c10.7-13.7,24.8-21.8,42-24.3C149,29.5,157.6,29.8,166.1,32.2z"/>
		<path class="st4" d="M175.4,138.4c-1.8,1.1-3.6,2.3-5.4,3.4c-5.7,3.5-11.9,5.5-18.5,6.4c-5.3,0.7-10.6,0.5-16-0.1
			c-0.3,0-0.5-0.3-0.8-0.4c-0.1-0.2-0.1-0.4,0-0.6c7.9,1.1,15.6,0.5,23.2-1.7c4.5-1.3,8.7-3.3,12.6-5.9c1.1-0.7,2.3-1.4,3.4-2.1
			C174.9,137.2,175.7,136.9,175.4,138.4L175.4,138.4z"/>
		<path class="st4" d="M100.9,113.4c0,0.3,0,0.7-0.1,0.8c-0.6,0.4-0.7-0.3-0.8-0.6c-2.3-3.7-4.2-7.6-5.5-11.8
			c-0.7-2.4-1.9-4.6-1.5-7.4c1,0.6,1.1,1.4,1.2,2.3c1.2,5.5,3,10.8,5.8,15.7C100.2,112.8,100.6,113.1,100.9,113.4
			C100.9,113.4,100.9,113.4,100.9,113.4z"/>
		<path class="st4" d="M126.7,146c-4.4-1-8-3.6-11.7-6c3.9,2.1,8.2,3.6,12.2,5.4C127.2,145.8,127,146,126.7,146z"/>
		<path class="st4" d="M126.7,146c0.2-0.2,0.4-0.4,0.5-0.6c2.5,0.6,5,1.2,7.5,1.8c0,0.2,0,0.4,0,0.5c-1.9-0.3-3.9-0.6-5.8-0.9
			C128.2,146.7,127.4,146.6,126.7,146z"/>
		<path class="st4" d="M175.4,138.4c0-0.9-0.7-0.9-1.4-0.9c0.3-0.2,0.5-0.5,0.9-0.6c0.8-0.2,1.9-1.6,2.4-0.5
			C177.8,137.4,176.5,138.1,175.4,138.4z"/>
		<path class="st4" d="M144.6,139.7c3,0,6,0,8.9,0C150.6,140.5,147.6,140.5,144.6,139.7z"/>
	</g>
	<path id="Der" class="st5" d="M122.7,131.7c-2.3-1.7-4.6-3.4-5.6-6.4c0.7-0.6,1,0.3,1.4,0.5c5,2.7,10.3,5.1,15.9,6.1
		c9.2,1.6,18.1,0.7,26.7-3.2c13.5-6.2,21.3-16.7,24.6-31c0.3-1.5-0.3-1.7-1.4-1.7c-3.1,0-6.2-0.3-9.3-0.4c-8.6-0.2-17.1-1-25.7-1.5
		c-3.7-0.2-7.3-0.8-11-1.2c-0.4,0-0.8-0.1-1.1-0.3c-0.7-0.5-1.3-1.2-1.3-1.9c0-1,1.1-0.8,1.8-0.8c4.1-0.4,8.2-0.7,12.4-1
		c5.8-0.5,11.8-0.3,17.4-1.5c5.2-1.1,10.1-0.1,15.1-0.3c3.4-0.1,6.9,0.2,10.3-0.3c1.5-0.2,2.9,1.7,3,3.6c0.5,11.5-2.8,21.8-9.4,31.1
		c-0.2,0.2-0.4,0.1-0.6-0.1c-0.2-0.3-0.2-0.7-0.1-1.1c0.7-1.9,2.1-3.4,3-5.2c4.3-8.4,5.8-14.7,5.5-24.5c0.4,9.6-2.3,18.5-7.5,26.5
		c-7.7,11.8-18.4,18.9-32.4,21c-5.8,0.9-11.5,0.8-17.2-0.6c-5-1.1-9.4-3.7-14-5.7C123,131.9,122.9,131.8,122.7,131.7z"/>
	<path id="Sup" class="st5" d="M88.4,81.3C88,86,86.9,90.6,87,95.4c0,5.2,0.2,10.3,1.2,15.4c0.2,0.9,0.6,2-0.5,2.4
		c-1,0.4-1.6-0.7-2-1.4c-2.4-4.9-4.1-10-5-15.4c-0.8-5-0.8-10-0.4-14.9C81.4,69,86.2,58,94,48.2c6.1-7.6,13.6-13.4,22.4-17.6
		c9.8-4.6,20.2-6.4,30.9-5.6c7.5,0.5,14.7,2.7,21.4,6.1c1,0.5,1.9,1.1,2.7,2c0.3,0.4,1,0.6,0.6,1.3c-0.3,0.5-1,0.5-1.4,0.4
		c-1.5-0.4-3.1-0.4-4.4-1.3c0.7-0.7,1.5-0.5,2.4-0.3c-0.9-0.4-1.8-0.4-2.7-0.6c-20.9-4.9-40.1-0.9-56.8,12.5
		c-13.1,10.5-20.6,24.5-23,41.2c-1,7.1-0.7,14.2,0.4,21.3c0,0.6,0.3,1.2,0.4,1.7c-0.8-3.7-0.9-7.4-1.1-11.1
		c-0.2-5.2,0.5-10.3,1.5-15.4C87.3,82.2,87.3,81.3,88.4,81.3z"/>
	<path id="Inf" class="st5" d="M129,147.3c-4.3-0.6-8-2.7-11.6-4.8c-9-5.2-15.8-12.6-20.6-21.8c-4.6-8.8-6.4-18.2-5.7-28.1
		c0.1-1,0.2-1.6,1.4-0.8c0.7,0.4,1.3,0.7,1.5,1.5c1.4,7,3.9,13.6,6.9,20.1c-0.9,0.2-1.1-0.6-1.4-1.1c-2.8-5.1-4.8-10.5-6-16.2
		c1.3,5.8,3.4,11.4,6.3,16.6c0.2,0.4,0.5,1,1.2,0.7c1.9,2.7,3.7,5.5,5.8,8c7.2,8.4,15.6,15,26.8,17.5c2.8,0,5.5,0.9,8.3,1.2
		c7.4,0.9,14.6,0.4,21.7-1.7c1.1-0.3,2.3-0.8,3.5-0.4c2.9-0.9,5.8-1.8,8.4-3.4c1.5-0.9,2.6-0.2,3.3,0.6c1,1-0.3,1.8-1,2.5
		c-1.1,1-2.1,2.1-3.6,2.5c-0.3-0.9,0.5-1.3,0.9-1.8c0.2-0.1,0.3-0.3,0.5-0.4c0.3-0.3,0.8-0.4,1.1-1.2c-1.2,0.3-1.9,0.9-2.7,1.4
		c-11.7,8.5-24.7,11.6-38.9,9.6c-2.5-0.6-5-0.9-7.4-1.8c-3.8-1.3-7.5-3-9.5-4.2c1.8,1,5.1,2.8,8.7,3.9c0.7,0.4,1.7,0.4,2.3,1.1
		C129.1,146.9,129.1,147.1,129,147.3z"/>
</g>
</svg>
