<?xml version="1.0" encoding="utf-8"?>
<!-- Generator: Adobe Illustrator 22.0.1, SVG Export Plug-In . SVG Version: 6.00 Build 0)  -->
<svg version="1.0" id="Logo" xmlns="http://www.w3.org/2000/svg" xmlns:xlink="http://www.w3.org/1999/xlink" x="0px" y="0px"
	 width="277px" height="173px" viewBox="0 0 277 173" style="enable-background:new 0 0 277 173;" xml:space="preserve">
<style type="text/css">
	.st0{opacity:0.63;}
	.st1{fill:#DAE9F7;}
	.st2{fill:#F4F6FF;}
	.st3{fill:#0E2372;}
	.st4{font-family:'Corbel';}
	.st5{font-size:89.9419px;}
</style>
<g id="Fondo" class="st0">
	<path class="st1" d="M75,138.8h11.5c3.2,0,5.8,2.6,5.8,5.7s-2.6,5.7-5.8,5.7H75l0,0l0,0c-3.2,0-5.8-2.6-5.8-5.7
		C69.2,141.4,71.8,138.8,75,138.8L75,138.8 M190.4,161.6c0.3,0,0.6,0,0.8,0.1h9.8c0.3,0,0.6-0.1,0.8-0.1c3.2,0,5.8,2.6,5.8,5.7
		c0,3.2-2.6,5.7-5.8,5.7v0.1h-11.5V173c-3.2,0-5.8-2.6-5.8-5.7C184.7,164.1,187.3,161.6,190.4,161.6 M271.2,70.8
		c-3.2,0-5.8-2.6-5.8-5.7l0,0c0-3.2,2.6-5.7,5.8-5.7l0,0c3.2,0,5.8,2.6,5.8,5.7C277,68.2,274.4,70.8,271.2,70.8 M46.2,31
		c0,3-2.3,5.4-5.3,5.6l0,0h-12c-3.2,0-5.8-2.6-5.8-5.7l0,0c0-3.2,2.6-5.7,5.8-5.7l0,0h12l0,0C43.8,25.5,46.2,28,46.2,31"/>
	<g>
		<path class="st2" d="M259.7,93.4H202c-3.2,0-5.8-2.6-5.8-5.7c0-3.2,2.6-5.7,5.8-5.7l0,0h46.2c3.2,0,5.8-2.6,5.8-5.7
			c0-3.2-2.6-5.7-5.8-5.7H202c-3.2,0-5.8-2.6-5.8-5.7s2.6-5.7,5.8-5.7s5.8-2.6,5.8-5.7s-2.6-5.7-5.8-5.7h-11.5
			c-3.2,0-5.8-2.6-5.8-5.7s2.6-5.7,5.8-5.7h46.2c3.2,0,5.8-2.6,5.8-5.7s-2.6-5.7-5.8-5.7H179c-3.2,0-5.8-2.6-5.8-5.7
			s2.6-5.7,5.8-5.7h11.5c3.2,0,5.8-2.6,5.8-5.7S193.7,2,190.5,2h-80.8c-3.2,0-5.8,2.6-5.8,5.7s2.6,5.7,5.8,5.7h11.5
			c3.2,0,5.8,2.6,5.8,5.7s-2.6,5.7-5.8,5.7H75c-3.2,0-5.8,2.6-5.8,5.7c0,3.2,2.6,5.7,5.8,5.7h23.1c3.2,0,5.8,2.6,5.8,5.7
			s-2.6,5.7-5.8,5.7H86.6c-3.2,0-5.8,2.6-5.8,5.7s2.6,5.7,5.8,5.7c3.2,0,5.8,2.6,5.8,5.7s-2.6,5.7-5.8,5.7H40
			c-3.2,0-5.8,2.6-5.8,5.7l0,0c0,3.2,2.6,5.7,5.8,5.7h23.5c3.2,0,5.8,2.6,5.8,5.7s-2.6,5.7-5.8,5.7H5.8C2.6,93.4,0,96,0,99.1
			s2.6,5.7,5.8,5.7H75c3.2,0,5.8,2.6,5.8,5.7l0,0c0,3.2-2.6,5.7-5.8,5.7H51.9c-3.2,0-5.8,2.6-5.8,5.7c0,3.2,2.6,5.7,5.8,5.7h69.3
			c3.2,0,5.8,2.6,5.8,5.7c0,3.2-2.6,5.7-5.8,5.7h-11.5c-3.2,0-5.8,2.6-5.8,5.7s2.6,5.7,5.8,5.7h23.1c3.2,0,5.8,2.6,5.8,5.7
			c0,3.2-2.6,5.7-5.8,5.7h-11.5c-3.2,0-5.8,2.6-5.8,5.7c0,3.2,2.6,5.7,5.8,5.7h46.2c3.2,0,5.8-2.6,5.8-5.7c0-3.2-2.6-5.7-5.8-5.7
			l0,0h-11.6c-3.2,0-5.8-2.6-5.8-5.7c0-3.2,2.6-5.7,5.8-5.7h92.3c3.2,0,5.8-2.6,5.8-5.7s-2.6-5.7-5.8-5.7H202
			c-3.2,0-5.8-2.6-5.8-5.7l0,0c0-3.2,2.6-5.7,5.8-5.7h23.1c3.2,0,5.8-2.6,5.8-5.7s-2.6-5.7-5.8-5.7h-11.5c-3.2,0-5.8-2.6-5.8-5.7
			l0,0c0-3.2,2.6-5.7,5.8-5.7h46.2c3.2,0,5.8-2.6,5.8-5.7C265.5,96,262.9,93.4,259.7,93.4"/>
	</g>
</g>
<text transform="matrix(1 0 0 1 80.7607 110.3516)" class="st3 st4 st5">S/S</text>
</svg>
